<svg id="svg" version="1.1" width="400" height="424.01656314699795" viewBox="0 0 400 424.01656314699795" xmlns="http://www.w3.org/2000/svg" xmlns:xlink="http://www.w3.org/1999/xlink" ><g id="svgg"><path id="path0" d="M328.610 0.293 C 327.516 0.380,326.436 0.589,326.210 0.758 C 325.985 0.927,324.720 1.305,323.400 1.597 C 322.080 1.890,320.829 2.280,320.620 2.464 C 320.411 2.649,319.916 2.800,319.520 2.800 C 319.124 2.800,318.800 2.980,318.800 3.200 C 318.800 3.420,318.474 3.600,318.076 3.600 C 317.679 3.600,317.004 3.864,316.576 4.187 C 316.149 4.510,315.485 4.780,315.100 4.787 C 314.715 4.794,314.400 4.980,314.400 5.200 C 314.400 5.420,314.080 5.600,313.688 5.600 C 313.297 5.600,312.717 5.960,312.400 6.400 C 312.083 6.840,311.453 7.200,311.000 7.200 C 310.547 7.200,309.917 7.560,309.600 8.000 C 309.283 8.440,308.693 8.800,308.288 8.800 C 307.884 8.800,307.664 8.980,307.800 9.200 C 307.936 9.420,307.767 9.600,307.424 9.600 C 307.081 9.600,306.800 9.780,306.800 10.000 C 306.800 10.220,306.554 10.400,306.254 10.400 C 305.653 10.400,301.200 14.521,301.200 15.077 C 301.200 15.268,300.840 15.683,300.400 16.000 C 299.960 16.317,299.600 16.897,299.600 17.288 C 299.600 17.680,299.420 18.000,299.200 18.000 C 298.980 18.000,298.800 18.295,298.800 18.656 C 298.800 19.017,298.534 19.512,298.208 19.756 C 297.883 20.000,297.575 20.785,297.523 21.500 C 297.472 22.215,297.313 22.800,297.171 22.800 C 296.722 22.800,296.731 29.110,297.180 29.388 C 297.411 29.530,297.600 30.067,297.600 30.581 C 297.600 31.094,297.870 31.618,298.200 31.745 C 298.530 31.871,298.800 32.264,298.800 32.618 C 298.800 33.394,303.862 38.400,304.646 38.400 C 304.951 38.400,305.200 38.580,305.200 38.800 C 305.200 39.020,305.549 39.200,305.976 39.200 C 306.403 39.200,306.864 39.380,307.000 39.600 C 307.322 40.122,310.800 40.122,310.800 39.600 C 310.800 39.380,311.169 39.200,311.619 39.200 C 312.499 39.200,316.000 35.775,316.000 34.915 C 316.000 34.632,316.191 34.400,316.424 34.400 C 316.657 34.400,316.752 34.247,316.636 34.059 C 316.520 33.871,316.684 33.376,317.000 32.959 C 317.316 32.542,317.580 31.806,317.587 31.324 C 317.594 30.842,317.780 30.336,318.000 30.200 C 318.220 30.064,318.400 29.423,318.400 28.776 C 318.400 28.129,318.580 27.600,318.800 27.600 C 319.020 27.600,319.200 27.071,319.200 26.424 C 319.200 25.777,319.380 25.136,319.600 25.000 C 319.820 24.864,320.000 24.313,320.000 23.776 C 320.000 23.239,320.180 22.800,320.400 22.800 C 320.620 22.800,320.800 22.512,320.800 22.160 C 320.800 21.809,321.340 21.017,322.000 20.400 C 322.660 19.783,323.200 19.081,323.200 18.840 C 323.200 18.598,323.335 18.431,323.500 18.470 C 323.981 18.582,326.000 17.504,326.000 17.136 C 326.000 16.483,333.091 16.738,333.345 17.400 C 333.471 17.730,333.871 18.000,334.233 18.000 C 334.956 18.000,338.120 19.621,338.333 20.100 C 338.407 20.265,338.686 20.400,338.955 20.400 C 339.224 20.400,340.154 21.042,341.022 21.827 C 341.890 22.612,343.262 23.855,344.072 24.589 C 344.881 25.323,345.646 25.820,345.772 25.695 C 345.897 25.569,346.000 25.650,346.000 25.874 C 346.000 26.098,346.539 26.846,347.198 27.535 C 347.857 28.225,348.442 29.009,348.498 29.279 C 348.554 29.548,348.915 30.125,349.300 30.560 C 349.685 30.995,350.000 31.677,350.000 32.075 C 350.000 32.474,350.180 32.800,350.400 32.800 C 350.620 32.800,350.800 33.160,350.800 33.600 C 350.800 34.040,350.980 34.400,351.200 34.400 C 351.420 34.400,351.600 35.120,351.600 36.000 C 351.600 36.909,351.792 37.600,352.045 37.600 C 352.339 37.600,352.395 38.044,352.210 38.900 C 352.056 39.615,351.840 41.325,351.731 42.700 C 351.621 44.075,351.367 45.200,351.166 45.200 C 350.965 45.200,350.800 45.909,350.800 46.776 C 350.800 47.643,350.620 48.464,350.400 48.600 C 350.180 48.736,350.000 49.377,350.000 50.024 C 350.000 50.671,349.820 51.200,349.600 51.200 C 349.380 51.200,349.200 51.740,349.200 52.400 C 349.200 53.060,349.020 53.600,348.800 53.600 C 348.580 53.600,348.400 53.960,348.400 54.400 C 348.400 54.840,348.220 55.200,348.000 55.200 C 347.780 55.200,347.600 55.560,347.600 56.000 C 347.600 56.440,347.450 56.800,347.268 56.800 C 347.085 56.800,346.682 57.295,346.373 57.900 C 346.064 58.505,345.501 59.360,345.122 59.800 C 343.366 61.838,340.800 65.173,340.800 65.416 C 340.800 65.889,337.022 69.191,336.476 69.196 C 336.188 69.198,336.064 69.380,336.200 69.600 C 336.336 69.820,336.206 70.000,335.912 70.000 C 335.617 70.000,335.117 70.360,334.800 70.800 C 334.483 71.240,333.983 71.600,333.688 71.600 C 333.394 71.600,333.256 71.767,333.382 71.971 C 333.508 72.175,333.265 72.452,332.841 72.587 C 332.052 72.837,329.698 74.530,328.114 75.986 C 327.627 76.434,327.087 76.800,326.914 76.801 C 326.741 76.801,325.970 77.341,325.200 78.000 C 324.430 78.659,323.589 79.199,323.331 79.199 C 323.073 79.200,322.660 79.785,322.414 80.500 C 321.990 81.729,317.130 85.600,316.010 85.600 C 315.784 85.600,315.599 85.735,315.597 85.900 C 315.595 86.065,315.190 86.401,314.697 86.646 C 311.973 88.000,308.574 89.826,308.400 90.029 C 307.594 90.971,296.958 94.870,289.800 96.849 C 288.920 97.092,287.840 97.437,287.400 97.615 C 286.960 97.794,286.150 98.031,285.600 98.142 C 285.050 98.253,283.880 98.554,283.000 98.809 C 282.120 99.065,280.813 99.368,280.096 99.481 C 279.379 99.595,278.694 99.849,278.573 100.044 C 278.452 100.240,277.834 100.400,277.200 100.400 C 276.566 100.400,275.936 100.580,275.800 100.800 C 275.664 101.020,275.111 101.200,274.571 101.200 C 274.031 101.200,273.277 101.362,272.895 101.561 C 272.513 101.760,271.390 102.140,270.400 102.407 C 269.410 102.673,268.240 103.038,267.800 103.217 C 267.360 103.395,265.200 104.124,263.000 104.835 C 257.065 106.754,255.143 109.222,255.809 114.068 C 256.298 117.623,258.163 119.723,261.238 120.182 C 264.982 120.741,275.213 120.641,279.600 120.003 C 285.794 119.102,293.955 119.292,296.600 120.398 C 297.040 120.582,297.985 120.972,298.700 121.264 C 299.415 121.556,300.000 121.931,300.000 122.098 C 300.000 122.264,300.258 122.400,300.573 122.400 C 301.902 122.400,307.217 128.710,308.660 132.000 C 309.749 134.482,310.918 137.058,311.244 137.695 C 311.440 138.077,311.600 138.741,311.600 139.171 C 311.600 139.601,311.780 140.064,312.000 140.200 C 312.220 140.336,312.406 140.842,312.413 141.324 C 312.440 143.224,313.247 143.631,315.223 142.741 C 319.803 140.678,326.192 138.893,333.624 137.600 C 337.164 136.984,350.187 136.996,352.443 137.618 C 353.409 137.884,354.963 138.439,355.896 138.851 C 356.828 139.263,357.692 139.600,357.815 139.600 C 358.318 139.600,362.588 142.541,364.086 143.920 C 365.880 145.571,368.126 148.775,369.609 151.800 C 370.148 152.900,370.686 153.890,370.804 154.000 C 370.923 154.110,371.465 155.055,372.009 156.100 C 372.999 158.000,372.999 158.000,375.099 158.000 C 376.255 158.000,377.200 157.820,377.200 157.600 C 377.200 157.380,377.388 157.200,377.618 157.200 C 378.441 157.200,379.952 155.264,380.212 153.874 C 380.440 152.659,380.104 151.691,377.833 147.024 C 376.379 144.035,374.893 140.826,374.531 139.894 C 374.169 138.962,373.754 138.020,373.609 137.800 C 373.463 137.580,373.100 136.590,372.802 135.600 C 372.505 134.610,372.112 133.629,371.930 133.420 C 371.749 133.211,371.600 132.637,371.600 132.144 C 371.600 131.651,371.441 131.149,371.246 131.029 C 371.051 130.908,370.793 130.313,370.671 129.705 C 370.463 128.668,370.224 127.679,369.172 123.500 C 367.521 116.941,366.379 105.336,367.348 104.965 C 368.165 104.651,368.305 100.804,367.500 100.794 C 367.167 100.790,367.200 100.658,367.600 100.400 C 368.000 100.142,368.033 100.010,367.700 100.006 C 367.319 100.001,367.200 98.290,367.200 92.800 C 367.200 88.267,367.348 85.600,367.600 85.600 C 367.842 85.600,368.000 83.875,368.000 81.224 C 368.000 78.737,368.173 76.740,368.400 76.600 C 368.620 76.464,368.800 75.003,368.800 73.353 C 368.800 71.455,368.947 70.444,369.200 70.600 C 369.451 70.755,369.600 69.887,369.600 68.273 C 369.600 66.539,369.785 65.544,370.167 65.228 C 370.492 64.958,370.823 63.699,370.943 62.279 C 371.468 56.045,371.660 54.547,372.031 53.800 C 372.575 52.703,372.251 33.226,371.641 30.400 C 371.380 29.190,371.065 27.621,370.941 26.914 C 370.817 26.207,370.465 25.420,370.158 25.165 C 369.851 24.910,369.600 24.285,369.600 23.775 C 369.600 23.265,369.420 22.736,369.200 22.600 C 368.980 22.464,368.800 21.913,368.800 21.376 C 368.800 20.839,368.620 20.400,368.400 20.400 C 368.180 20.400,368.000 20.040,368.000 19.600 C 368.000 19.160,367.820 18.800,367.600 18.800 C 367.380 18.800,367.200 18.440,367.200 18.000 C 367.200 17.560,367.054 17.200,366.875 17.200 C 366.696 17.200,366.302 16.570,366.000 15.800 C 365.698 15.030,365.304 14.400,365.125 14.400 C 364.946 14.400,364.800 14.029,364.800 13.576 C 364.800 13.123,364.620 12.864,364.400 13.000 C 364.180 13.136,363.998 13.102,363.995 12.924 C 363.981 12.082,359.570 7.200,358.823 7.200 C 358.547 7.200,357.817 6.660,357.200 6.000 C 356.583 5.340,355.806 4.800,355.473 4.800 C 355.139 4.800,354.807 4.642,354.733 4.449 C 354.499 3.831,351.516 2.000,350.744 2.000 C 350.335 2.000,350.000 1.820,350.000 1.600 C 350.000 1.380,349.586 1.200,349.080 1.200 C 348.574 1.200,347.935 0.975,347.660 0.700 C 347.165 0.205,333.420 -0.089,328.610 0.293 " stroke="none" fill="#94bb4b" fill-rule="evenodd"></path><path id="path1" d="M307.000 79.600 C 306.560 79.789,304.636 79.956,302.724 79.972 C 300.812 79.987,299.136 80.180,299.000 80.400 C 298.864 80.620,297.874 80.800,296.800 80.800 C 295.726 80.800,294.736 80.980,294.600 81.200 C 294.464 81.420,293.589 81.600,292.656 81.600 C 291.723 81.600,290.789 81.771,290.579 81.981 C 290.370 82.190,289.524 82.407,288.699 82.463 C 287.875 82.518,287.200 82.707,287.200 82.882 C 287.200 83.057,286.671 83.200,286.024 83.200 C 285.377 83.200,284.736 83.380,284.600 83.600 C 284.464 83.820,283.823 84.000,283.176 84.000 C 282.529 84.000,282.000 84.180,282.000 84.400 C 282.000 84.620,281.460 84.800,280.800 84.800 C 280.140 84.800,279.600 84.980,279.600 85.200 C 279.600 85.420,279.161 85.600,278.624 85.600 C 278.087 85.600,277.536 85.780,277.400 86.000 C 277.264 86.220,276.823 86.400,276.419 86.400 C 276.016 86.400,275.582 86.670,275.455 87.000 C 275.321 87.351,274.721 87.600,274.013 87.600 C 273.346 87.600,272.800 87.780,272.800 88.000 C 272.800 88.220,272.528 88.400,272.195 88.400 C 271.607 88.400,271.182 88.567,269.305 89.538 C 268.813 89.792,268.138 90.000,267.805 90.000 C 267.472 90.000,267.200 90.164,267.200 90.364 C 267.200 90.565,266.165 90.828,264.900 90.949 C 260.492 91.371,258.597 91.680,258.220 92.039 C 258.011 92.237,257.156 92.400,256.320 92.400 C 255.484 92.400,254.800 92.580,254.800 92.800 C 254.800 93.020,254.181 93.200,253.424 93.200 C 252.667 93.200,251.936 93.380,251.800 93.600 C 251.664 93.820,251.130 94.000,250.614 94.000 C 250.098 94.000,248.984 94.335,248.138 94.745 C 247.292 95.155,245.658 95.920,244.506 96.445 C 243.355 96.970,242.410 97.535,242.406 97.700 C 242.403 97.865,242.040 98.000,241.600 98.000 C 241.160 98.000,240.800 98.193,240.800 98.429 C 240.800 99.066,239.747 100.000,239.028 100.000 C 238.128 100.000,231.443 106.768,230.611 108.521 C 230.226 109.331,229.752 109.894,229.556 109.773 C 229.360 109.652,229.200 110.013,229.200 110.576 C 229.200 111.139,229.020 111.600,228.800 111.600 C 228.580 111.600,228.400 111.772,228.400 111.982 C 228.400 112.350,226.845 114.884,226.006 115.883 C 225.783 116.149,225.600 116.734,225.600 117.183 C 225.600 117.632,225.420 118.000,225.200 118.000 C 224.980 118.000,224.800 118.360,224.800 118.800 C 224.800 119.240,224.620 119.600,224.400 119.600 C 224.180 119.600,224.000 120.129,224.000 120.776 C 224.000 121.423,223.820 122.064,223.600 122.200 C 223.380 122.336,223.200 122.797,223.200 123.224 C 223.200 123.651,223.059 124.000,222.887 124.000 C 222.715 124.000,222.534 124.495,222.484 125.100 C 222.434 125.705,222.215 126.260,221.997 126.333 C 221.778 126.407,221.600 126.992,221.600 127.633 C 221.600 128.275,221.420 128.800,221.200 128.800 C 220.980 128.800,220.800 129.430,220.800 130.200 C 220.800 130.970,220.620 131.600,220.400 131.600 C 220.180 131.600,220.000 131.962,220.000 132.405 C 220.000 132.848,219.820 133.568,219.600 134.005 C 219.380 134.442,219.020 135.158,218.800 135.595 C 218.580 136.032,218.400 136.741,218.400 137.171 C 218.400 137.601,218.220 138.064,218.000 138.200 C 217.780 138.336,217.600 138.887,217.600 139.424 C 217.600 139.961,217.420 140.400,217.200 140.400 C 216.980 140.400,216.800 140.925,216.800 141.567 C 216.800 142.208,216.594 142.802,216.343 142.886 C 216.091 142.970,215.830 143.553,215.763 144.183 C 215.696 144.812,215.497 145.434,215.320 145.564 C 214.985 145.811,214.709 146.649,214.682 147.500 C 214.674 147.775,214.517 148.000,214.333 148.000 C 214.150 148.000,214.000 148.450,214.000 149.000 C 214.000 149.550,213.840 150.000,213.645 150.000 C 213.310 150.000,213.194 150.376,212.569 153.500 C 212.426 154.215,212.150 154.800,211.955 154.800 C 211.760 154.800,211.600 155.340,211.600 156.000 C 211.600 156.660,211.420 157.200,211.200 157.200 C 210.980 157.200,210.800 157.751,210.800 158.424 C 210.800 159.137,210.633 159.544,210.400 159.400 C 210.173 159.260,210.000 159.596,210.000 160.176 C 210.000 160.739,209.820 161.200,209.600 161.200 C 209.380 161.200,209.200 161.729,209.200 162.376 C 209.200 163.023,209.020 163.664,208.800 163.800 C 208.580 163.936,208.400 164.476,208.400 165.000 C 208.400 165.524,208.220 166.064,208.000 166.200 C 207.780 166.336,207.600 166.799,207.600 167.229 C 207.600 167.659,207.420 168.368,207.200 168.805 C 206.980 169.242,206.620 169.958,206.400 170.395 C 206.180 170.832,206.000 171.541,206.000 171.971 C 206.000 172.401,205.820 172.864,205.600 173.000 C 205.380 173.136,205.200 173.665,205.200 174.175 C 205.200 174.685,204.930 175.326,204.600 175.600 C 204.270 175.874,204.000 176.425,204.000 176.825 C 204.000 177.225,203.820 177.664,203.600 177.800 C 203.380 177.936,203.200 178.476,203.200 179.000 C 203.200 179.524,203.020 180.064,202.800 180.200 C 202.580 180.336,202.400 180.797,202.400 181.224 C 202.400 181.651,202.258 182.000,202.085 182.000 C 201.912 182.000,201.740 182.402,201.703 182.893 C 201.666 183.384,201.464 184.149,201.255 184.593 C 200.365 186.480,199.661 188.727,199.888 188.955 C 200.023 189.090,199.923 189.200,199.667 189.200 C 199.410 189.200,199.200 189.639,199.200 190.176 C 199.200 190.713,199.020 191.264,198.800 191.400 C 198.580 191.536,198.400 192.087,198.400 192.624 C 198.400 193.161,198.220 193.600,198.000 193.600 C 197.780 193.600,197.600 194.140,197.600 194.800 C 197.600 195.460,197.420 196.000,197.200 196.000 C 196.980 196.000,196.800 196.461,196.800 197.024 C 196.800 197.604,196.627 197.940,196.400 197.800 C 196.167 197.656,196.000 198.063,196.000 198.776 C 196.000 199.449,195.820 200.000,195.600 200.000 C 195.380 200.000,195.200 200.540,195.200 201.200 C 195.200 201.860,195.020 202.400,194.800 202.400 C 194.580 202.400,194.400 202.839,194.400 203.376 C 194.400 203.913,194.220 204.464,194.000 204.600 C 193.780 204.736,193.600 205.265,193.600 205.775 C 193.600 206.285,193.330 206.926,193.000 207.200 C 192.670 207.474,192.400 208.025,192.400 208.425 C 192.400 208.825,192.220 209.264,192.000 209.400 C 191.780 209.536,191.600 210.087,191.600 210.624 C 191.600 211.161,191.458 211.600,191.285 211.600 C 191.112 211.600,190.940 212.002,190.903 212.493 C 190.841 213.313,190.485 214.263,189.553 216.095 C 189.359 216.477,189.200 217.141,189.200 217.571 C 189.200 218.001,189.020 218.464,188.800 218.600 C 188.580 218.736,188.400 219.287,188.400 219.824 C 188.400 220.361,188.220 220.800,188.000 220.800 C 187.780 220.800,187.600 221.239,187.600 221.776 C 187.600 222.313,187.420 222.864,187.200 223.000 C 186.980 223.136,186.800 223.597,186.800 224.024 C 186.800 224.451,186.620 224.800,186.400 224.800 C 186.180 224.800,186.000 225.329,186.000 225.976 C 186.000 226.623,185.820 227.264,185.600 227.400 C 185.380 227.536,185.200 227.999,185.200 228.429 C 185.200 228.859,185.020 229.568,184.800 230.005 C 184.580 230.442,184.220 231.158,184.000 231.595 C 183.780 232.032,183.600 232.752,183.600 233.195 C 183.600 233.638,183.420 234.000,183.200 234.000 C 182.980 234.000,182.800 234.525,182.800 235.167 C 182.800 235.808,182.622 236.393,182.403 236.467 C 182.185 236.540,181.966 237.095,181.916 237.700 C 181.866 238.305,181.685 238.800,181.513 238.800 C 181.341 238.800,181.200 239.231,181.200 239.757 C 181.200 240.284,180.930 240.818,180.600 240.945 C 180.270 241.071,180.000 241.620,180.000 242.164 C 180.000 242.708,179.820 243.264,179.600 243.400 C 179.380 243.536,179.200 244.076,179.200 244.600 C 179.200 245.124,179.037 245.654,178.837 245.777 C 178.637 245.901,178.243 246.901,177.961 248.001 C 177.679 249.100,177.303 250.000,177.124 250.000 C 176.946 250.000,176.800 250.540,176.800 251.200 C 176.800 251.860,176.659 252.400,176.487 252.400 C 176.315 252.400,175.940 253.255,175.654 254.300 C 175.134 256.196,174.621 257.581,173.953 258.895 C 173.759 259.277,173.600 259.952,173.600 260.395 C 173.600 260.838,173.420 261.200,173.200 261.200 C 172.980 261.200,172.800 261.650,172.800 262.200 C 172.800 262.750,172.620 263.200,172.400 263.200 C 172.180 263.200,172.000 263.729,172.000 264.376 C 172.000 265.023,171.820 265.664,171.600 265.800 C 171.380 265.936,171.200 266.472,171.200 266.990 C 171.200 267.509,171.022 267.993,170.803 268.067 C 170.585 268.140,170.366 268.695,170.316 269.300 C 170.266 269.905,170.085 270.400,169.913 270.400 C 169.741 270.400,169.600 270.643,169.600 270.940 C 169.600 271.238,169.150 272.327,168.600 273.362 C 168.050 274.396,167.600 275.582,167.600 275.998 C 167.600 276.413,167.420 276.864,167.200 277.000 C 166.980 277.136,166.800 277.687,166.800 278.224 C 166.800 278.761,166.620 279.200,166.400 279.200 C 166.180 279.200,166.000 279.650,166.000 280.200 C 166.000 280.750,165.820 281.200,165.600 281.200 C 165.380 281.200,165.200 281.674,165.200 282.253 C 165.200 282.832,164.867 283.597,164.459 283.953 C 164.052 284.309,163.439 285.140,163.097 285.800 C 162.755 286.460,162.009 287.540,161.438 288.200 C 160.868 288.860,160.401 289.537,160.400 289.704 C 160.400 289.871,159.860 290.572,159.200 291.263 C 158.540 291.954,158.000 292.762,158.000 293.059 C 158.000 293.357,157.742 293.600,157.427 293.600 C 157.112 293.600,156.740 293.960,156.600 294.400 C 156.460 294.840,156.088 295.200,155.773 295.200 C 155.458 295.200,155.200 295.365,155.200 295.567 C 155.200 295.769,154.525 296.349,153.700 296.855 C 151.881 297.970,151.533 298.241,149.792 299.900 C 149.041 300.615,148.190 301.200,147.902 301.200 C 147.613 301.200,147.117 301.560,146.800 302.000 C 146.483 302.440,145.943 302.800,145.600 302.800 C 145.257 302.800,144.717 303.160,144.400 303.600 C 144.083 304.040,143.493 304.400,143.088 304.400 C 142.684 304.400,142.464 304.580,142.600 304.800 C 142.736 305.020,142.567 305.200,142.224 305.200 C 141.881 305.200,141.600 305.380,141.600 305.600 C 141.600 305.820,141.330 306.000,141.000 306.000 C 140.670 306.000,140.400 306.180,140.400 306.400 C 140.400 306.620,140.106 306.800,139.747 306.800 C 139.388 306.800,138.802 307.115,138.446 307.500 C 137.706 308.300,135.354 310.000,134.988 310.000 C 134.853 310.000,134.492 310.225,134.185 310.500 C 132.793 311.749,132.392 312.000,131.793 312.000 C 131.441 312.000,131.264 312.180,131.400 312.400 C 131.536 312.620,131.367 312.800,131.024 312.800 C 130.681 312.800,130.400 312.980,130.400 313.200 C 130.400 313.420,130.117 313.600,129.771 313.600 C 129.426 313.600,128.871 313.872,128.539 314.204 C 128.207 314.536,127.742 314.688,127.506 314.542 C 127.251 314.385,127.193 314.464,127.362 314.738 C 127.531 315.012,127.393 315.200,127.024 315.200 C 126.681 315.200,126.400 315.380,126.400 315.600 C 126.400 315.820,126.122 316.000,125.783 316.000 C 125.444 316.000,124.780 316.360,124.308 316.800 C 123.836 317.240,123.213 317.600,122.925 317.600 C 122.636 317.600,122.400 317.780,122.400 318.000 C 122.400 318.220,122.051 318.400,121.624 318.400 C 121.197 318.400,120.736 318.580,120.600 318.800 C 120.464 319.020,120.003 319.200,119.576 319.200 C 119.149 319.200,118.800 319.339,118.800 319.509 C 118.800 319.848,116.834 320.948,115.100 321.579 C 114.495 321.800,114.000 322.165,114.000 322.390 C 114.000 322.616,113.640 322.800,113.200 322.800 C 112.760 322.800,112.400 322.980,112.400 323.200 C 112.400 323.420,112.040 323.600,111.600 323.600 C 111.160 323.600,110.800 323.780,110.800 324.000 C 110.800 324.220,110.451 324.400,110.024 324.400 C 109.597 324.400,109.136 324.580,109.000 324.800 C 108.864 325.020,108.313 325.200,107.776 325.200 C 107.239 325.200,106.800 325.380,106.800 325.600 C 106.800 325.820,106.350 326.000,105.800 326.000 C 105.250 326.000,104.800 326.180,104.800 326.400 C 104.800 326.620,104.386 326.800,103.880 326.800 C 103.374 326.800,102.781 326.979,102.562 327.198 C 102.344 327.416,101.691 327.635,101.111 327.683 C 100.532 327.730,100.145 327.912,100.252 328.085 C 100.360 328.258,99.907 328.400,99.247 328.400 C 98.587 328.400,97.936 328.580,97.800 328.800 C 97.664 329.020,96.933 329.200,96.176 329.200 C 95.419 329.200,94.800 329.380,94.800 329.600 C 94.800 329.820,94.069 330.000,93.176 330.000 C 92.196 330.000,91.651 330.158,91.800 330.400 C 91.953 330.648,91.215 330.800,89.857 330.800 C 88.652 330.800,87.607 330.965,87.533 331.167 C 87.460 331.369,86.500 331.579,85.400 331.634 C 84.300 331.689,83.194 331.890,82.942 332.081 C 81.904 332.868,59.207 332.041,57.526 331.155 C 57.156 330.960,56.131 330.800,55.250 330.800 C 54.368 330.800,53.536 330.620,53.400 330.400 C 53.264 330.180,52.433 330.000,51.553 330.000 C 50.588 330.000,50.051 329.841,50.200 329.600 C 50.347 329.362,49.879 329.200,49.047 329.200 C 48.277 329.200,47.536 329.020,47.400 328.800 C 47.264 328.580,46.613 328.400,45.953 328.400 C 45.255 328.400,44.856 328.233,45.000 328.000 C 45.144 327.767,44.745 327.600,44.047 327.600 C 43.387 327.600,42.736 327.420,42.600 327.200 C 42.464 326.980,41.823 326.800,41.176 326.800 C 40.529 326.800,40.000 326.620,40.000 326.400 C 40.000 326.180,39.651 326.000,39.224 326.000 C 38.797 326.000,38.336 325.820,38.200 325.600 C 38.064 325.380,37.513 325.200,36.976 325.200 C 36.439 325.200,36.000 325.020,36.000 324.800 C 36.000 324.580,35.359 324.400,34.576 324.400 C 33.729 324.400,33.253 324.238,33.400 324.000 C 33.549 323.759,33.012 323.600,32.047 323.600 C 31.167 323.600,30.336 323.420,30.200 323.200 C 30.064 322.980,28.829 322.800,27.456 322.800 C 26.003 322.800,24.753 322.593,24.464 322.304 C 23.751 321.591,17.189 321.563,16.917 322.272 C 16.784 322.618,15.979 322.800,14.581 322.800 C 13.407 322.800,12.336 322.980,12.200 323.200 C 12.064 323.420,11.423 323.600,10.776 323.600 C 10.129 323.600,9.600 323.780,9.600 324.000 C 9.600 324.220,9.240 324.400,8.800 324.400 C 8.360 324.400,8.000 324.580,8.000 324.800 C 8.000 325.020,7.629 325.200,7.176 325.200 C 6.723 325.200,6.464 325.380,6.600 325.600 C 6.736 325.820,6.606 326.000,6.312 326.000 C 6.017 326.000,5.517 326.360,5.200 326.800 C 4.883 327.240,4.424 327.600,4.179 327.600 C 3.935 327.600,3.494 328.050,3.200 328.600 C 2.906 329.150,2.505 329.600,2.309 329.600 C 2.113 329.600,2.051 329.760,2.172 329.955 C 2.293 330.150,2.123 330.532,1.796 330.804 C 1.468 331.076,1.200 331.690,1.200 332.169 C 1.200 332.648,0.975 333.265,0.700 333.540 C 0.012 334.229,0.033 347.793,0.724 348.484 C 0.986 348.746,1.200 349.554,1.200 350.280 C 1.200 351.006,1.380 351.600,1.600 351.600 C 1.820 351.600,2.000 352.020,2.000 352.533 C 2.000 353.047,2.123 353.590,2.274 353.741 C 2.553 354.019,3.554 356.584,3.744 357.504 C 3.801 357.781,4.062 358.222,4.324 358.484 C 4.586 358.746,4.800 359.464,4.800 360.080 C 4.800 360.696,4.980 361.200,5.200 361.200 C 5.420 361.200,5.600 361.751,5.600 362.424 C 5.600 363.137,5.767 363.544,6.000 363.400 C 6.222 363.263,6.404 363.564,6.409 364.076 C 6.414 364.584,6.770 365.450,7.200 366.000 C 7.630 366.550,7.986 367.122,7.991 367.272 C 7.996 367.422,9.440 369.032,11.200 370.849 C 12.960 372.667,14.400 374.299,14.400 374.477 C 14.400 374.655,14.598 374.800,14.840 374.800 C 15.081 374.800,15.758 375.295,16.343 375.900 C 16.929 376.505,17.643 377.049,17.930 377.109 C 18.217 377.168,18.834 377.573,19.301 378.009 C 19.769 378.444,20.387 378.800,20.675 378.800 C 20.964 378.800,21.200 378.980,21.200 379.200 C 21.200 379.420,21.481 379.600,21.824 379.600 C 22.167 379.600,22.336 379.780,22.200 380.000 C 22.064 380.220,22.323 380.400,22.776 380.400 C 23.229 380.400,23.600 380.568,23.600 380.774 C 23.600 380.980,24.230 381.376,25.000 381.654 C 25.770 381.933,26.400 382.405,26.400 382.704 C 26.400 383.003,26.568 383.143,26.774 383.016 C 26.980 382.889,27.602 383.238,28.156 383.792 C 28.710 384.347,29.442 384.800,29.782 384.800 C 30.122 384.800,30.400 384.980,30.400 385.200 C 30.400 385.420,30.593 385.600,30.828 385.600 C 31.063 385.600,32.041 386.140,33.000 386.800 C 33.959 387.460,34.937 388.000,35.172 388.000 C 35.407 388.000,35.600 388.180,35.600 388.400 C 35.600 388.620,35.870 388.800,36.200 388.800 C 36.530 388.800,36.800 388.980,36.800 389.200 C 36.800 389.420,37.160 389.600,37.600 389.600 C 38.040 389.600,38.400 389.768,38.400 389.974 C 38.400 390.180,39.030 390.576,39.800 390.854 C 40.570 391.133,41.200 391.505,41.200 391.680 C 41.200 391.856,41.560 392.000,42.000 392.000 C 42.440 392.000,42.800 392.150,42.800 392.332 C 42.800 392.515,43.295 392.911,43.900 393.212 C 44.505 393.513,45.540 394.132,46.200 394.588 C 46.860 395.043,47.850 395.614,48.400 395.855 C 50.937 396.967,51.839 397.437,52.332 397.904 C 52.625 398.181,53.030 398.305,53.232 398.180 C 53.435 398.055,53.600 398.125,53.600 398.335 C 53.600 398.727,58.412 401.200,59.175 401.200 C 59.409 401.200,59.600 401.347,59.600 401.528 C 59.600 401.708,60.500 402.100,61.600 402.400 C 62.700 402.700,63.600 403.092,63.600 403.272 C 63.600 403.453,63.960 403.600,64.400 403.600 C 64.840 403.600,65.200 403.780,65.200 404.000 C 65.200 404.220,65.560 404.400,66.000 404.400 C 66.440 404.400,66.800 404.580,66.800 404.800 C 66.800 405.020,67.149 405.200,67.576 405.200 C 68.003 405.200,68.464 405.380,68.600 405.600 C 68.736 405.820,69.287 406.000,69.824 406.000 C 70.361 406.000,70.800 406.180,70.800 406.400 C 70.800 406.620,71.034 406.800,71.320 406.800 C 71.606 406.800,72.054 407.014,72.315 407.275 C 72.576 407.536,73.197 407.811,73.695 407.886 C 74.193 407.961,74.660 408.198,74.733 408.412 C 74.807 408.625,75.178 408.800,75.558 408.800 C 75.939 408.800,76.995 409.160,77.906 409.600 C 78.816 410.040,79.840 410.400,80.181 410.400 C 80.521 410.400,80.800 410.580,80.800 410.800 C 80.800 411.020,81.329 411.200,81.976 411.200 C 82.623 411.200,83.264 411.380,83.400 411.600 C 83.536 411.820,84.087 412.000,84.624 412.000 C 85.161 412.000,85.600 412.180,85.600 412.400 C 85.600 412.620,86.230 412.800,87.000 412.800 C 87.770 412.800,88.400 412.980,88.400 413.200 C 88.400 413.420,88.940 413.600,89.600 413.600 C 90.260 413.600,90.800 413.780,90.800 414.000 C 90.800 414.220,91.340 414.400,92.000 414.400 C 92.660 414.400,93.200 414.580,93.200 414.800 C 93.200 415.020,93.740 415.200,94.400 415.200 C 95.060 415.200,95.600 415.361,95.600 415.558 C 95.600 415.755,96.275 416.018,97.100 416.143 C 100.680 416.684,101.600 416.909,101.600 417.244 C 101.600 417.440,102.301 417.600,103.157 417.600 C 104.052 417.600,104.798 417.817,104.911 418.111 C 105.019 418.393,105.701 418.668,106.427 418.723 C 107.153 418.779,107.939 418.975,108.173 419.159 C 108.408 419.344,109.174 419.506,109.875 419.520 C 110.576 419.534,111.509 419.737,111.949 419.973 C 112.388 420.208,113.353 420.400,114.094 420.400 C 114.834 420.400,115.611 420.564,115.820 420.765 C 116.029 420.965,117.190 421.231,118.400 421.356 C 123.400 421.869,124.800 422.092,124.800 422.376 C 124.800 422.540,126.010 422.713,127.488 422.761 C 128.966 422.809,130.441 423.062,130.765 423.324 C 131.245 423.712,131.288 423.689,131.000 423.200 C 130.686 422.667,130.728 422.667,131.385 423.200 C 132.321 423.961,181.017 424.122,181.515 423.366 C 181.672 423.127,182.970 422.890,184.400 422.838 C 185.830 422.786,187.171 422.576,187.380 422.372 C 187.589 422.167,188.804 422.000,190.080 422.000 C 191.356 422.000,192.400 421.855,192.400 421.678 C 192.400 421.501,193.129 421.313,194.020 421.261 C 194.910 421.208,196.092 420.993,196.646 420.783 C 197.199 420.572,198.345 420.400,199.193 420.400 C 200.040 420.400,200.793 420.228,200.867 420.018 C 200.940 419.807,201.675 419.590,202.500 419.536 C 203.325 419.481,204.000 419.332,204.000 419.203 C 204.000 419.075,204.315 418.935,204.700 418.891 C 205.085 418.848,205.760 418.733,206.200 418.637 C 206.640 418.540,207.236 418.447,207.524 418.431 C 207.812 418.414,207.936 418.220,207.800 418.000 C 207.651 417.758,208.196 417.600,209.176 417.600 C 210.069 417.600,210.800 417.420,210.800 417.200 C 210.800 416.980,211.531 416.800,212.424 416.800 C 213.404 416.800,213.949 416.642,213.800 416.400 C 213.653 416.162,214.129 416.000,214.976 416.000 C 215.759 416.000,216.400 415.820,216.400 415.600 C 216.400 415.380,216.929 415.200,217.576 415.200 C 218.223 415.200,218.864 415.020,219.000 414.800 C 219.136 414.580,219.777 414.400,220.424 414.400 C 221.071 414.400,221.600 414.220,221.600 414.000 C 221.600 413.780,222.140 413.600,222.800 413.600 C 223.460 413.600,224.000 413.420,224.000 413.200 C 224.000 412.980,224.540 412.800,225.200 412.800 C 225.860 412.800,226.400 412.620,226.400 412.400 C 226.400 412.180,226.940 412.000,227.600 412.000 C 228.260 412.000,228.800 411.820,228.800 411.600 C 228.800 411.380,229.235 411.200,229.767 411.200 C 230.298 411.200,230.793 411.022,230.867 410.803 C 230.940 410.585,231.482 410.367,232.071 410.319 C 232.660 410.270,233.055 410.088,232.948 409.915 C 232.840 409.742,233.087 409.600,233.496 409.600 C 233.905 409.600,234.419 409.421,234.638 409.202 C 234.856 408.984,235.522 408.764,236.118 408.715 C 236.713 408.666,237.200 408.522,237.200 408.395 C 237.200 408.268,238.010 407.830,239.000 407.422 C 239.990 407.013,240.800 406.527,240.800 406.340 C 240.800 406.153,241.351 406.000,242.024 406.000 C 242.737 406.000,243.144 405.833,243.000 405.600 C 242.860 405.373,243.196 405.200,243.776 405.200 C 244.339 405.200,244.800 405.020,244.800 404.800 C 244.800 404.580,245.160 404.400,245.600 404.400 C 246.040 404.400,246.400 404.220,246.400 404.000 C 246.400 403.780,246.760 403.600,247.200 403.600 C 247.640 403.600,248.000 403.420,248.000 403.200 C 248.000 402.980,248.360 402.800,248.800 402.800 C 249.240 402.800,249.600 402.620,249.600 402.400 C 249.600 402.180,249.960 402.000,250.400 402.000 C 250.840 402.000,251.200 401.820,251.200 401.600 C 251.200 401.380,251.465 401.200,251.788 401.200 C 252.111 401.200,253.017 400.840,253.800 400.400 C 254.583 399.960,255.489 399.600,255.812 399.600 C 256.135 399.600,256.400 399.420,256.400 399.200 C 256.400 398.980,256.760 398.800,257.200 398.800 C 257.640 398.800,258.000 398.620,258.000 398.400 C 258.000 398.180,258.360 398.000,258.800 398.000 C 259.240 398.000,259.600 397.864,259.600 397.698 C 259.600 397.349,262.051 396.177,262.500 396.311 C 262.665 396.360,262.800 396.240,262.800 396.043 C 262.800 395.847,263.520 395.399,264.400 395.047 C 265.280 394.695,266.000 394.225,266.000 394.003 C 266.000 393.781,266.326 393.600,266.725 393.600 C 267.123 393.600,267.836 393.240,268.308 392.800 C 268.780 392.360,269.444 392.000,269.783 392.000 C 270.122 392.000,270.400 391.820,270.400 391.600 C 270.400 391.380,270.760 391.200,271.200 391.200 C 271.640 391.200,272.000 391.042,272.000 390.849 C 272.000 390.655,272.540 390.273,273.200 390.000 C 273.860 389.727,274.400 389.345,274.400 389.151 C 274.400 388.958,274.760 388.800,275.200 388.800 C 275.640 388.800,276.001 388.665,276.003 388.500 C 276.005 388.335,276.410 388.002,276.903 387.760 C 279.311 386.578,281.413 385.370,281.533 385.100 C 281.607 384.935,281.922 384.800,282.233 384.800 C 282.545 384.800,282.800 384.628,282.800 384.419 C 282.800 384.209,283.430 383.739,284.200 383.373 C 284.970 383.008,285.600 382.549,285.600 382.354 C 285.600 382.159,285.855 382.000,286.167 382.000 C 286.478 382.000,286.793 381.865,286.867 381.700 C 287.034 381.324,289.164 380.025,290.100 379.729 C 290.485 379.607,290.800 379.348,290.800 379.153 C 290.800 378.959,291.070 378.800,291.400 378.800 C 291.730 378.800,292.000 378.620,292.000 378.400 C 292.000 378.180,292.371 378.000,292.824 378.000 C 293.277 378.000,293.536 377.820,293.400 377.600 C 293.264 377.380,293.356 377.200,293.605 377.200 C 293.854 377.200,294.329 376.928,294.661 376.596 C 294.993 376.264,295.458 376.112,295.694 376.258 C 295.949 376.415,296.007 376.336,295.838 376.062 C 295.669 375.788,295.807 375.600,296.176 375.600 C 296.519 375.600,296.800 375.420,296.800 375.200 C 296.800 374.980,296.988 374.800,297.217 374.800 C 297.446 374.800,298.020 374.440,298.492 374.000 C 298.964 373.560,299.568 373.200,299.833 373.200 C 300.098 373.200,300.418 372.930,300.545 372.600 C 300.671 372.270,301.011 372.000,301.299 372.000 C 301.587 372.000,302.083 371.640,302.400 371.200 C 302.717 370.760,303.185 370.400,303.440 370.400 C 303.695 370.400,304.645 369.680,305.552 368.800 C 306.459 367.920,307.398 367.200,307.640 367.200 C 307.881 367.200,308.592 366.651,309.218 365.980 C 309.845 365.309,310.502 364.763,310.679 364.765 C 310.856 364.768,311.360 364.459,311.800 364.080 C 312.240 363.700,313.227 362.944,313.992 362.401 C 314.758 361.858,316.297 360.511,317.412 359.407 C 318.526 358.303,319.676 357.348,319.965 357.285 C 320.255 357.221,321.177 356.456,322.015 355.585 C 322.852 354.713,323.719 354.000,323.942 354.000 C 324.164 354.000,324.460 353.640,324.600 353.200 C 324.740 352.760,325.072 352.400,325.339 352.400 C 325.605 352.400,326.083 352.040,326.400 351.600 C 326.717 351.160,327.131 350.800,327.320 350.800 C 327.738 350.800,340.173 338.335,340.708 337.379 C 341.051 336.766,344.463 332.962,348.500 328.692 C 349.325 327.820,350.000 326.947,350.000 326.753 C 350.000 326.559,350.180 326.400,350.400 326.400 C 350.620 326.400,350.800 326.119,350.800 325.776 C 350.800 325.433,350.980 325.264,351.200 325.400 C 351.420 325.536,351.600 325.349,351.600 324.984 C 351.600 324.619,352.140 323.817,352.800 323.200 C 353.460 322.583,354.000 321.915,354.000 321.715 C 354.000 321.515,354.320 321.002,354.711 320.575 C 355.102 320.149,355.858 319.170,356.392 318.400 C 356.925 317.630,357.470 316.910,357.603 316.800 C 358.209 316.299,360.800 312.643,360.800 312.289 C 360.800 312.072,361.149 311.591,361.575 311.222 C 362.001 310.852,362.406 310.291,362.475 309.975 C 362.544 309.659,362.871 309.130,363.203 308.800 C 363.534 308.470,364.060 307.705,364.370 307.100 C 364.681 306.495,365.085 306.000,365.268 306.000 C 365.450 306.000,365.600 305.640,365.600 305.200 C 365.600 304.760,365.780 304.400,366.000 304.400 C 366.220 304.400,366.400 304.119,366.400 303.776 C 366.400 303.433,366.580 303.264,366.800 303.400 C 367.028 303.541,367.200 303.196,367.200 302.600 C 367.200 302.004,367.372 301.659,367.600 301.800 C 367.828 301.941,368.000 301.596,368.000 301.000 C 368.000 300.404,368.172 300.059,368.400 300.200 C 368.620 300.336,368.800 300.167,368.800 299.824 C 368.800 299.481,368.980 299.200,369.200 299.200 C 369.420 299.200,369.600 298.840,369.600 298.400 C 369.600 297.956,369.867 297.600,370.200 297.600 C 370.533 297.600,370.800 297.244,370.800 296.800 C 370.800 296.360,370.980 296.000,371.200 296.000 C 371.420 296.000,371.600 295.713,371.600 295.362 C 371.600 295.011,371.932 294.246,372.337 293.662 C 372.743 293.078,373.327 292.015,373.635 291.300 C 373.943 290.585,374.331 290.000,374.498 290.000 C 374.664 290.000,374.800 289.755,374.800 289.456 C 374.800 289.157,375.362 287.762,376.049 286.356 C 376.736 284.950,377.636 283.108,378.049 282.262 C 378.462 281.416,378.800 280.471,378.800 280.162 C 378.800 279.853,378.980 279.600,379.200 279.600 C 379.420 279.600,379.600 279.139,379.600 278.576 C 379.600 277.996,379.773 277.660,380.000 277.800 C 380.227 277.940,380.400 277.604,380.400 277.024 C 380.400 276.461,380.580 276.000,380.800 276.000 C 381.020 276.000,381.200 275.640,381.200 275.200 C 381.200 274.760,381.380 274.400,381.600 274.400 C 381.820 274.400,382.000 273.860,382.000 273.200 C 382.000 272.540,382.147 272.000,382.326 272.000 C 382.768 272.000,384.000 269.358,384.000 268.410 C 384.000 267.990,384.180 267.536,384.400 267.400 C 384.620 267.264,384.800 266.803,384.800 266.376 C 384.800 265.949,384.980 265.600,385.200 265.600 C 385.420 265.600,385.600 265.060,385.600 264.400 C 385.600 263.740,385.780 263.200,386.000 263.200 C 386.220 263.200,386.400 262.750,386.400 262.200 C 386.400 261.650,386.580 261.200,386.800 261.200 C 387.020 261.200,387.200 260.606,387.200 259.880 C 387.200 259.154,387.350 258.389,387.533 258.180 C 387.975 257.675,388.800 254.727,388.800 253.654 C 388.800 253.184,388.980 252.800,389.200 252.800 C 389.420 252.800,389.600 252.271,389.600 251.624 C 389.600 250.977,389.780 250.336,390.000 250.200 C 390.220 250.064,390.400 249.333,390.400 248.576 C 390.400 247.819,390.560 247.200,390.756 247.200 C 391.091 247.200,391.317 246.278,391.858 242.697 C 391.982 241.871,392.245 241.095,392.442 240.974 C 392.639 240.852,392.800 239.953,392.800 238.976 C 392.800 237.999,392.980 237.200,393.200 237.200 C 393.420 237.200,393.600 236.294,393.600 235.187 C 393.600 233.849,393.784 233.104,394.150 232.964 C 394.498 232.830,394.713 232.076,394.736 230.910 C 394.757 229.896,394.959 228.881,395.187 228.653 C 395.414 228.426,395.600 227.297,395.600 226.144 C 395.600 224.991,395.749 223.955,395.931 223.843 C 396.113 223.730,396.301 222.685,396.349 221.519 C 396.454 219.000,396.545 218.333,396.856 217.800 C 396.985 217.580,397.127 216.050,397.172 214.400 C 397.217 212.750,397.421 211.229,397.627 211.020 C 397.832 210.811,398.000 208.774,398.000 206.494 C 398.000 204.213,398.169 202.031,398.376 201.645 C 398.583 201.259,398.783 199.066,398.822 196.771 C 398.861 194.477,399.036 192.420,399.211 192.200 C 399.760 191.511,400.084 165.875,399.614 160.200 C 398.954 152.210,398.756 150.631,398.363 150.220 C 398.163 150.011,398.000 149.246,398.000 148.520 C 398.000 147.794,397.820 147.200,397.600 147.200 C 397.380 147.200,397.200 146.660,397.200 146.000 C 397.200 145.340,397.020 144.800,396.800 144.800 C 396.580 144.800,396.400 144.434,396.400 143.986 C 396.400 143.538,396.106 142.723,395.746 142.173 C 395.386 141.624,395.197 141.069,395.327 140.940 C 395.456 140.811,395.300 140.443,394.981 140.124 C 394.661 139.804,394.400 139.196,394.400 138.771 C 394.400 138.347,394.220 138.000,394.000 138.000 C 393.780 138.000,393.600 137.640,393.600 137.200 C 393.600 136.760,393.420 136.400,393.200 136.400 C 392.980 136.400,392.800 136.040,392.800 135.600 C 392.800 135.160,392.620 134.800,392.400 134.800 C 392.180 134.800,392.000 134.339,392.000 133.776 C 392.000 133.196,391.827 132.860,391.600 133.000 C 391.380 133.136,391.200 132.985,391.200 132.664 C 391.200 131.989,388.910 127.515,388.404 127.203 C 388.217 127.087,388.005 126.738,387.932 126.427 C 387.859 126.116,387.219 125.229,386.508 124.456 C 385.798 123.683,385.289 122.978,385.378 122.889 C 385.466 122.800,382.718 119.890,379.269 116.422 C 375.821 112.954,372.618 109.686,372.151 109.158 C 371.067 107.935,368.442 105.600,368.150 105.600 C 367.649 105.600,368.689 118.814,369.234 119.380 C 369.435 119.589,369.600 120.523,369.600 121.456 C 369.600 122.389,369.780 123.264,370.000 123.400 C 370.220 123.536,370.400 124.256,370.400 125.000 C 370.400 125.744,370.580 126.464,370.800 126.600 C 371.020 126.736,371.200 127.347,371.200 127.957 C 371.200 128.567,371.304 129.171,371.431 129.298 C 371.558 129.425,372.248 131.210,372.964 133.264 C 373.680 135.319,374.584 137.720,374.974 138.600 C 375.363 139.480,375.829 140.560,376.009 141.000 C 376.188 141.440,377.430 144.056,378.768 146.812 C 381.120 151.659,381.977 155.200,380.800 155.200 C 380.580 155.200,380.400 155.457,380.400 155.771 C 380.400 156.956,376.542 159.200,374.505 159.200 C 373.460 159.200,370.800 156.703,370.800 155.722 C 370.800 155.435,370.620 155.200,370.400 155.200 C 370.180 155.200,370.000 154.840,370.000 154.400 C 370.000 153.960,369.864 153.600,369.698 153.600 C 369.531 153.600,369.138 153.015,368.824 152.300 C 365.644 145.065,359.234 140.135,350.723 138.379 C 344.291 137.051,332.399 138.119,323.400 140.832 C 318.921 142.182,317.400 142.740,314.553 144.080 C 313.255 144.691,312.217 144.322,312.066 143.196 C 311.993 142.648,311.768 142.029,311.566 141.820 C 311.365 141.611,311.200 141.114,311.200 140.715 C 311.200 140.316,311.020 139.632,310.800 139.195 C 310.580 138.758,310.220 138.042,310.000 137.605 C 309.780 137.168,309.600 136.448,309.600 136.005 C 309.600 135.562,309.420 135.200,309.200 135.200 C 308.980 135.200,308.800 134.935,308.800 134.612 C 308.800 130.764,299.560 121.200,295.842 121.200 C 295.357 121.200,294.772 121.012,294.541 120.781 C 294.018 120.258,282.573 120.523,275.800 121.215 C 270.114 121.797,270.214 121.795,264.600 121.419 C 258.963 121.042,255.600 119.258,255.600 116.645 C 255.600 116.316,255.420 115.936,255.200 115.800 C 254.980 115.664,254.800 114.320,254.800 112.814 C 254.800 107.724,256.547 105.913,263.649 103.644 C 265.932 102.914,268.113 102.156,268.495 101.959 C 268.877 101.761,269.631 101.600,270.171 101.600 C 270.711 101.600,271.264 101.420,271.400 101.200 C 271.536 100.980,272.166 100.800,272.800 100.800 C 273.434 100.800,274.064 100.620,274.200 100.400 C 274.336 100.180,274.966 100.000,275.600 100.000 C 276.234 100.000,276.864 99.820,277.000 99.600 C 277.136 99.380,277.766 99.200,278.400 99.200 C 279.034 99.200,279.664 99.020,279.800 98.800 C 279.936 98.580,280.566 98.400,281.200 98.400 C 281.834 98.400,282.464 98.220,282.600 98.000 C 282.736 97.780,283.467 97.600,284.224 97.600 C 284.981 97.600,285.600 97.420,285.600 97.200 C 285.600 96.980,286.042 96.800,286.581 96.800 C 287.121 96.800,287.976 96.632,288.481 96.426 C 288.987 96.221,291.470 95.406,294.000 94.616 C 296.530 93.825,298.960 93.022,299.400 92.830 C 299.840 92.638,300.830 92.264,301.600 91.999 C 304.311 91.067,310.142 88.330,310.333 87.900 C 310.407 87.735,310.729 87.600,311.050 87.600 C 311.371 87.600,311.851 87.426,312.117 87.212 C 312.383 86.999,314.567 85.514,316.972 83.912 C 322.450 80.264,322.562 80.000,318.633 80.000 C 316.878 80.000,315.600 79.832,315.600 79.600 C 315.600 79.108,308.145 79.108,307.000 79.600 " stroke="none" fill="#cc332c" fill-rule="evenodd"></path><path id="path2" d="M320.400 81.554 L 319.000 82.919 320.288 82.041 C 321.524 81.198,322.236 80.434,321.940 80.268 C 321.863 80.225,321.170 80.804,320.400 81.554 M312.900 86.488 C 312.405 86.727,312.000 87.079,312.000 87.270 C 312.000 87.462,312.450 87.324,313.000 86.963 C 314.467 86.002,314.416 85.757,312.900 86.488 M301.400 91.994 C 300.960 92.180,300.259 92.442,299.843 92.576 C 299.426 92.710,299.178 92.911,299.290 93.023 C 299.403 93.136,300.373 92.872,301.447 92.436 C 302.521 92.000,303.130 91.646,302.800 91.649 C 302.470 91.652,301.840 91.807,301.400 91.994 M294.000 94.625 C 293.230 94.916,292.894 95.165,293.254 95.177 C 293.614 95.190,294.514 94.937,295.254 94.616 C 296.920 93.892,295.916 93.900,294.000 94.625 M268.600 102.000 C 268.308 102.473,268.699 102.473,269.800 102.000 C 270.571 101.669,270.569 101.655,269.724 101.628 C 269.242 101.613,268.736 101.780,268.600 102.000 M265.016 103.064 C 264.145 103.378,263.335 103.731,263.217 103.850 C 262.901 104.166,265.209 103.553,266.600 102.951 C 268.200 102.258,267.017 102.343,265.016 103.064 M260.600 104.614 C 258.985 105.354,259.951 105.355,261.654 104.616 C 262.394 104.294,262.730 104.039,262.400 104.048 C 262.070 104.057,261.260 104.312,260.600 104.614 M257.733 106.092 C 256.602 106.896,255.348 108.384,255.672 108.539 C 255.743 108.573,256.572 107.835,257.515 106.900 C 259.468 104.965,259.503 104.835,257.733 106.092 M367.720 108.000 C 367.720 109.210,367.795 109.705,367.887 109.100 C 367.978 108.495,367.978 107.505,367.887 106.900 C 367.795 106.295,367.720 106.790,367.720 108.000 M255.067 109.467 C 254.920 109.613,254.818 110.288,254.841 110.967 L 254.882 112.200 255.210 110.803 C 255.553 109.347,255.517 109.016,255.067 109.467 M254.800 114.310 C 254.800 114.993,254.977 115.662,255.194 115.796 C 255.440 115.948,255.494 115.545,255.337 114.720 C 255.000 112.951,254.800 112.799,254.800 114.310 M368.259 115.000 C 368.393 116.100,368.569 117.075,368.651 117.167 C 368.964 117.517,368.726 114.561,368.380 113.800 C 368.135 113.261,368.095 113.654,368.259 115.000 M255.615 116.844 C 255.623 117.150,256.280 118.120,257.073 119.000 C 257.867 119.880,258.331 120.330,258.104 120.000 C 257.877 119.670,257.221 118.700,256.646 117.844 C 256.071 116.988,255.607 116.538,255.615 116.844 M368.828 119.476 C 368.918 120.515,369.544 121.396,369.572 120.524 C 369.587 120.042,369.420 119.536,369.200 119.400 C 368.980 119.264,368.813 119.298,368.828 119.476 M285.300 120.297 C 286.785 120.374,289.215 120.374,290.700 120.297 C 292.185 120.220,290.970 120.157,288.000 120.157 C 285.030 120.157,283.815 120.220,285.300 120.297 M259.415 120.824 C 259.543 121.031,260.297 121.200,261.090 121.200 C 262.861 121.200,262.700 120.990,260.691 120.680 C 259.791 120.541,259.276 120.599,259.415 120.824 M278.200 120.800 L 277.000 121.105 278.400 121.147 C 279.170 121.169,280.070 121.013,280.400 120.800 C 281.139 120.323,280.076 120.323,278.200 120.800 M294.600 120.800 C 294.736 121.020,295.242 121.187,295.724 121.172 C 296.569 121.145,296.571 121.131,295.800 120.800 C 294.699 120.327,294.308 120.327,294.600 120.800 M267.940 121.611 C 269.117 121.782,270.917 121.781,271.940 121.608 C 273.448 121.353,273.044 121.295,269.800 121.297 C 266.320 121.299,266.078 121.340,267.940 121.611 M302.400 124.497 C 302.400 124.604,302.945 125.301,303.610 126.046 C 304.276 126.791,305.459 128.435,306.239 129.700 C 307.640 131.970,308.469 132.848,307.561 131.100 C 306.363 128.793,302.400 123.722,302.400 124.497 M373.647 136.000 C 373.650 136.854,375.527 140.732,375.567 139.967 C 375.585 139.618,375.465 139.198,375.300 139.033 C 375.135 138.869,374.695 137.984,374.322 137.067 C 373.950 136.150,373.646 135.670,373.647 136.000 M336.200 138.021 C 335.443 138.227,336.034 138.265,337.800 138.125 C 339.340 138.002,340.675 137.834,340.767 137.751 C 341.073 137.474,337.416 137.690,336.200 138.021 M347.633 137.749 C 347.725 137.831,348.700 138.007,349.800 138.141 C 351.146 138.305,351.539 138.265,351.000 138.020 C 350.239 137.674,347.283 137.436,347.633 137.749 M330.600 138.796 C 330.102 139.008,330.631 139.051,332.000 138.912 C 333.210 138.789,334.275 138.623,334.367 138.544 C 334.711 138.247,331.367 138.470,330.600 138.796 M352.033 138.544 C 352.125 138.623,352.740 138.808,353.400 138.956 C 354.276 139.152,354.438 139.115,354.000 138.818 C 353.460 138.453,351.632 138.198,352.033 138.544 M326.400 139.583 C 325.850 139.759,324.590 140.126,323.600 140.400 C 322.610 140.673,321.170 141.152,320.400 141.465 C 319.044 142.015,319.728 141.914,322.200 141.199 C 322.860 141.008,324.750 140.494,326.400 140.058 C 328.050 139.621,328.950 139.264,328.400 139.264 C 327.850 139.263,326.950 139.407,326.400 139.583 M357.388 140.579 C 358.921 141.337,360.232 141.901,360.301 141.832 C 360.485 141.648,355.615 139.200,355.066 139.200 C 354.809 139.201,355.855 139.821,357.388 140.579 M376.207 142.279 C 376.807 143.714,377.200 144.362,377.200 143.916 C 377.200 143.484,375.985 140.800,375.789 140.800 C 375.679 140.800,375.867 141.466,376.207 142.279 M316.600 142.778 C 315.720 143.195,315.193 143.550,315.429 143.568 C 315.664 143.585,316.564 143.247,317.429 142.816 C 319.446 141.810,318.717 141.776,316.600 142.778 M362.534 143.854 C 363.560 144.653,364.400 145.463,364.400 145.654 C 364.400 145.844,364.625 145.992,364.900 145.982 C 365.464 145.962,361.631 142.400,361.045 142.400 C 360.838 142.400,361.508 143.054,362.534 143.854 M312.068 143.400 C 312.224 144.289,313.836 144.724,314.504 144.056 C 314.786 143.774,314.627 143.720,313.998 143.885 C 313.363 144.051,312.903 143.889,312.504 143.362 C 311.942 142.618,311.931 142.619,312.068 143.400 M366.415 148.200 C 368.168 150.870,368.734 151.401,367.578 149.291 C 367.063 148.350,366.295 147.270,365.872 146.891 C 365.445 146.508,365.687 147.092,366.415 148.200 M373.201 158.900 C 373.200 159.291,375.658 159.278,376.278 158.884 C 376.541 158.717,375.956 158.585,374.979 158.590 C 374.002 158.596,373.202 158.735,373.201 158.900 " stroke="none" fill="#bc5034" fill-rule="evenodd"></path><path id="path3" d="M322.000 80.521 C 322.000 80.890,320.675 82.070,318.967 83.222 C 317.300 84.347,316.024 85.357,316.132 85.466 C 316.241 85.574,317.599 84.794,319.150 83.731 C 321.753 81.949,322.824 80.690,322.237 80.103 C 322.106 79.973,322.000 80.161,322.000 80.521 M313.684 86.666 C 312.740 87.235,312.054 87.788,312.161 87.894 C 312.267 88.000,312.887 87.708,313.539 87.244 C 314.190 86.780,314.921 86.400,315.162 86.400 C 315.403 86.400,315.600 86.220,315.600 86.000 C 315.600 85.488,315.689 85.457,313.684 86.666 M305.253 91.053 C 304.513 91.376,304.001 91.734,304.116 91.849 C 304.231 91.964,305.016 91.693,305.862 91.247 C 307.635 90.311,307.241 90.186,305.253 91.053 M295.600 94.637 C 292.850 95.590,290.832 96.377,291.116 96.385 C 292.008 96.411,301.600 93.264,301.600 92.946 C 301.600 92.634,300.421 92.966,295.600 94.637 M288.600 96.809 C 287.940 96.989,286.860 97.315,286.200 97.534 L 285.000 97.931 286.076 97.966 C 286.668 97.985,287.264 97.820,287.400 97.600 C 287.536 97.380,288.042 97.197,288.524 97.194 C 289.006 97.191,289.670 97.013,290.000 96.800 C 290.698 96.349,290.280 96.351,288.600 96.809 M282.021 98.638 C 279.803 99.235,279.037 99.600,280.005 99.600 C 280.551 99.600,282.741 98.961,284.200 98.375 C 285.458 97.870,284.405 97.997,282.021 98.638 M277.400 100.000 C 276.629 100.331,276.631 100.345,277.476 100.372 C 277.958 100.387,278.464 100.220,278.600 100.000 C 278.892 99.527,278.501 99.527,277.400 100.000 M274.600 100.800 C 273.829 101.131,273.831 101.145,274.676 101.172 C 275.158 101.187,275.664 101.020,275.800 100.800 C 276.092 100.327,275.701 100.327,274.600 100.800 M269.200 102.400 C 268.667 102.745,268.667 102.788,269.200 102.788 C 269.530 102.788,270.070 102.613,270.400 102.400 C 270.933 102.055,270.933 102.012,270.400 102.012 C 270.070 102.012,269.530 102.187,269.200 102.400 M367.067 105.067 C 366.704 105.429,366.816 109.516,367.228 111.000 C 367.441 111.766,367.483 111.072,367.345 109.084 C 367.197 106.944,367.281 105.785,367.613 105.384 C 368.085 104.816,367.599 104.534,367.067 105.067 M258.485 106.286 C 255.910 107.956,254.451 112.206,255.562 114.800 C 255.921 115.638,255.953 115.505,255.760 113.972 C 255.306 110.353,256.838 107.290,259.769 105.959 C 260.666 105.551,261.121 105.214,260.780 105.209 C 260.439 105.204,259.406 105.689,258.485 106.286 M367.674 115.000 C 367.664 115.880,367.811 116.960,368.000 117.400 L 368.344 118.200 368.349 117.400 C 368.352 116.960,368.205 115.880,368.023 115.000 L 367.692 113.400 367.674 115.000 M256.800 117.817 C 256.800 117.937,257.275 118.522,257.856 119.117 L 258.912 120.200 258.029 118.900 C 257.194 117.672,256.800 117.325,256.800 117.817 M282.876 119.540 C 282.368 119.683,284.565 119.800,287.760 119.800 C 290.954 119.800,293.260 119.678,292.884 119.528 C 292.017 119.184,284.108 119.193,282.876 119.540 M368.406 120.233 C 368.409 120.875,368.596 121.670,368.821 122.000 C 369.114 122.430,369.154 122.146,368.962 121.000 C 368.630 119.016,368.398 118.696,368.406 120.233 M260.600 120.400 C 262.361 120.848,264.599 120.848,263.200 120.400 C 262.650 120.224,261.570 120.083,260.800 120.087 L 259.400 120.095 260.600 120.400 M276.400 120.400 C 275.001 120.848,277.239 120.848,279.000 120.400 L 280.200 120.095 278.800 120.087 C 278.030 120.083,276.950 120.224,276.400 120.400 M295.400 120.400 C 296.501 120.873,296.892 120.873,296.600 120.400 C 296.464 120.180,295.958 120.013,295.476 120.028 C 294.631 120.055,294.629 120.069,295.400 120.400 M267.900 121.093 C 268.835 121.177,270.365 121.177,271.300 121.093 C 272.235 121.009,271.470 120.940,269.600 120.940 C 267.730 120.940,266.965 121.009,267.900 121.093 M300.400 122.532 C 300.400 122.605,301.255 123.254,302.300 123.974 L 304.200 125.284 302.604 123.842 C 301.207 122.579,300.400 122.100,300.400 122.532 M369.206 123.633 C 369.209 124.165,369.389 124.870,369.606 125.200 C 369.882 125.622,369.923 125.385,369.742 124.400 C 369.425 122.675,369.198 122.349,369.206 123.633 M305.178 127.113 C 305.847 127.945,307.021 129.790,307.788 131.213 C 308.555 132.636,309.186 133.580,309.191 133.312 C 309.209 132.328,304.932 125.614,304.281 125.605 C 304.106 125.602,304.509 126.281,305.178 127.113 M370.034 127.000 C 370.022 127.440,370.187 128.070,370.400 128.400 C 370.914 129.195,370.914 128.196,370.400 127.000 L 370.056 126.200 370.034 127.000 M370.828 129.876 C 370.813 130.358,370.980 130.864,371.200 131.000 C 371.673 131.292,371.673 130.901,371.200 129.800 C 370.869 129.029,370.855 129.031,370.828 129.876 M371.628 132.276 C 371.613 132.758,371.780 133.264,372.000 133.400 C 372.473 133.692,372.473 133.301,372.000 132.200 C 371.669 131.429,371.655 131.431,371.628 132.276 M309.807 135.479 C 310.482 137.093,310.800 137.558,310.800 136.928 C 310.800 136.431,309.609 134.000,309.365 134.000 C 309.268 134.000,309.467 134.666,309.807 135.479 M372.417 134.281 C 372.401 134.740,372.673 135.498,373.823 138.200 C 374.104 138.860,374.642 140.172,375.017 141.117 C 375.393 142.061,375.798 142.735,375.917 142.616 C 376.037 142.497,375.923 141.994,375.665 141.499 C 375.407 141.005,374.575 139.070,373.816 137.200 C 373.056 135.330,372.427 134.017,372.417 134.281 M334.000 137.587 C 333.450 137.755,334.800 137.803,337.000 137.692 C 339.200 137.582,341.075 137.426,341.167 137.346 C 341.488 137.065,334.989 137.283,334.000 137.587 M347.000 137.399 C 347.909 137.707,352.948 137.882,352.200 137.580 C 351.760 137.402,350.320 137.258,349.000 137.260 C 347.680 137.262,346.780 137.324,347.000 137.399 M310.828 137.876 C 310.918 138.915,311.544 139.796,311.572 138.924 C 311.587 138.442,311.420 137.936,311.200 137.800 C 310.980 137.664,310.813 137.698,310.828 137.876 M325.442 139.234 C 323.045 139.866,320.975 140.501,320.842 140.646 C 320.564 140.949,321.125 140.833,326.600 139.461 C 328.800 138.910,331.140 138.382,331.800 138.289 C 332.757 138.154,332.676 138.116,331.400 138.102 C 330.520 138.093,327.839 138.602,325.442 139.234 M356.076 139.353 C 361.781 141.844,365.676 145.298,368.413 150.296 C 368.924 151.228,369.409 151.924,369.491 151.843 C 369.675 151.658,368.272 149.137,366.797 147.002 C 364.751 144.041,360.249 140.531,356.800 139.208 C 356.030 138.913,355.229 138.521,355.020 138.336 C 354.811 138.151,354.271 138.002,353.820 138.005 C 353.369 138.008,354.384 138.614,356.076 139.353 M311.628 140.276 C 311.718 141.315,312.344 142.196,312.372 141.324 C 312.387 140.842,312.220 140.336,312.000 140.200 C 311.780 140.064,311.613 140.098,311.628 140.276 M316.000 142.400 C 314.219 143.375,314.894 143.375,317.000 142.400 C 317.880 141.993,318.330 141.654,318.000 141.646 C 317.670 141.639,316.770 141.978,316.000 142.400 M312.413 142.651 C 312.388 143.515,313.577 144.186,314.117 143.613 C 314.499 143.208,314.474 143.139,314.000 143.285 C 313.670 143.387,313.181 143.184,312.913 142.835 C 312.645 142.486,312.420 142.403,312.413 142.651 M379.200 149.739 C 379.200 149.815,379.488 150.455,379.840 151.161 C 380.272 152.027,380.398 152.925,380.226 153.922 C 380.041 154.991,380.083 155.234,380.379 154.800 C 380.974 153.926,380.890 152.134,380.190 150.780 C 379.664 149.764,379.200 149.275,379.200 149.739 M370.959 155.100 C 372.046 157.163,372.853 157.847,371.915 155.911 C 371.412 154.872,370.860 154.017,370.690 154.011 C 370.519 154.005,370.640 154.495,370.959 155.100 M378.860 156.242 C 378.562 156.578,378.399 156.932,378.495 157.029 C 378.592 157.126,378.998 156.844,379.398 156.402 C 379.797 155.961,379.961 155.607,379.762 155.615 C 379.563 155.624,379.157 155.905,378.860 156.242 M374.105 158.287 C 374.714 158.379,375.614 158.377,376.105 158.282 C 376.597 158.187,376.100 158.111,375.000 158.114 C 373.900 158.117,373.497 158.195,374.105 158.287 " stroke="none" fill="#a88c40" fill-rule="evenodd"></path><path id="path4" d="M367.467 105.467 C 367.320 105.613,367.223 106.468,367.250 107.367 L 367.300 109.000 367.599 107.200 C 367.916 105.296,367.896 105.038,367.467 105.467 M367.714 111.800 C 367.717 112.900,367.795 113.303,367.887 112.695 C 367.979 112.086,367.977 111.186,367.882 110.695 C 367.787 110.203,367.711 110.700,367.714 111.800 M286.100 119.894 C 287.145 119.976,288.855 119.976,289.900 119.894 C 290.945 119.812,290.090 119.744,288.000 119.744 C 285.910 119.744,285.055 119.812,286.100 119.894 M280.705 120.283 C 281.202 120.379,281.922 120.375,282.305 120.275 C 282.687 120.175,282.280 120.096,281.400 120.101 C 280.520 120.105,280.207 120.187,280.705 120.283 M368.868 120.400 C 368.888 121.439,369.518 123.146,369.532 122.200 C 369.538 121.760,369.389 121.040,369.200 120.600 C 368.989 120.110,368.861 120.032,368.868 120.400 M263.300 121.087 C 263.905 121.178,264.895 121.178,265.500 121.087 C 266.105 120.995,265.610 120.920,264.400 120.920 C 263.190 120.920,262.695 120.995,263.300 121.087 M273.907 121.090 C 274.626 121.179,275.706 121.177,276.307 121.086 C 276.908 120.995,276.320 120.922,275.000 120.924 C 273.680 120.926,273.188 121.001,273.907 121.090 M369.844 125.000 C 370.173 126.471,370.402 126.790,370.394 125.767 C 370.391 125.345,370.205 124.730,369.982 124.400 C 369.685 123.962,369.648 124.124,369.844 125.000 M342.500 137.491 C 343.325 137.578,344.675 137.578,345.500 137.491 C 346.325 137.405,345.650 137.334,344.000 137.334 C 342.350 137.334,341.675 137.405,342.500 137.491 M334.000 138.000 C 332.650 138.284,332.643 138.295,333.800 138.300 C 334.460 138.303,335.540 138.168,336.200 138.000 C 337.860 137.578,336.007 137.578,334.000 138.000 M351.000 138.000 C 351.440 138.189,352.160 138.338,352.600 138.332 C 353.243 138.323,353.204 138.257,352.400 138.000 C 351.032 137.562,349.981 137.562,351.000 138.000 M329.200 138.800 C 328.396 139.057,328.357 139.123,329.000 139.132 C 329.440 139.138,330.160 138.989,330.600 138.800 C 331.619 138.362,330.568 138.362,329.200 138.800 M378.241 157.227 C 377.383 157.872,376.850 158.400,377.056 158.400 C 377.262 158.400,378.053 157.867,378.815 157.216 C 380.587 155.702,380.261 155.708,378.241 157.227 M374.100 158.676 C 374.485 158.776,375.115 158.776,375.500 158.676 C 375.885 158.575,375.570 158.493,374.800 158.493 C 374.030 158.493,373.715 158.575,374.100 158.676 " stroke="none" fill="#b4683a" fill-rule="evenodd"></path></g></svg>