<?xml version="1.0" encoding="utf-8"?>
<!-- Svg Vector Icons : http://www.onlinewebfonts.com/icon -->
<!DOCTYPE svg PUBLIC "-//W3C//DTD SVG 1.1//EN" "http://www.w3.org/Graphics/SVG/1.1/DTD/svg11.dtd">
<svg version="1.1" xmlns="http://www.w3.org/2000/svg" xmlns:xlink="http://www.w3.org/1999/xlink" x="0px" y="0px" viewBox="0 0 1000 1000" enable-background="new 0 0 1000 1000" xml:space="preserve">
<metadata> Svg Vector Icons : http://www.onlinewebfonts.com/icon </metadata>
<g><g transform="translate(0.000000,511.000000) scale(0.100000,-0.100000)"><path d="M590.6,3935.7c-190.1-47-335.3-163.5-423.2-345.5l-67.5-137V816v-2637.2l53.2-112.4c75.6-163.5,147.2-235.1,300.5-310.7l137-67.5h4405.5h4405.5l114.5,53.2c145.2,67.5,255.5,177.8,323,323l53.1,114.5l6.1,2594.2c4.1,2328.5,2.1,2608.6-28.6,2708.7c-61.3,212.6-208.5,365.9-423.2,439.5c-87.9,30.7-482.5,32.7-4446.4,30.7C2608.4,3950,625.4,3943.8,590.6,3935.7z M9411.9,3602.4c63.4-32.7,104.3-73.6,137-137l47-89.9V816v-2559.5l-47-87.9c-32.7-61.3-75.6-104.3-137-137l-87.9-47H4996.1H668.3l-87.9,47c-61.3,32.7-104.3,75.6-137,137l-47,87.9V814v2559.5l47,89.9c32.7,67.5,69.5,104.3,137,139l89.9,45h4325.8h4325.8L9411.9,3602.4z"/><path d="M5580.8,3193.6c-47-42.9-83.8-200.3-453.8-1927.8C4906.2,231.4,4724.3-617,4720.2-621.1c-8.2-8.2-12.3,8.2-245.3,1181.6c-198.3,1001.7-220.8,1097.8-267.8,1140.7c-59.3,53.2-124.7,57.2-186,14.3c-24.5-18.4-94-153.3-169.7-331.2c-69.5-167.6-181.9-433.4-249.4-592.9l-122.7-290.3l-909.7-6.1l-909.7-6.1l-51.1-59.3c-59.3-71.5-53.1-163.5,16.4-220.8c40.9-34.7,118.6-36.8,1011.9-36.8c658.3,0,983.3,8.2,1016,22.5c57.3,26.6,65.4,40.9,251.5,486.5c104.3,255.5,143.1,327.1,155.4,296.4c8.2-20.4,122.7-580.6,253.5-1245c130.8-662.4,251.5-1226.6,267.8-1253.2c67.5-108.3,222.8-102.2,269.8,12.2c12.3,30.7,202.4,897.5,423.2,1925.8c218.8,1028.3,404.8,1889,410.9,1911.4c6.1,24.5,124.7-402.7,286.2-1032.4c214.7-838.2,284.2-1081.4,316.9-1108c38.8-34.7,118.6-36.8,1042.6-36.8h999.7l49.1,51.1c65.4,63.4,65.4,141.1,0,204.4l-49.1,51.1h-907.7h-905.6l-325.1,1263.4c-177.9,693-335.3,1304.3-351.6,1357.4C5795.5,3234.5,5683,3283.5,5580.8,3193.6z"/><path d="M3565.1-2833.1v-388.4h-347.5c-378.2,0-427.3-10.2-509-114.5c-53.2-67.5-57.2-204.4-10.2-271.9c18.4-26.6,71.5-65.4,118.6-85.8c79.7-36.8,175.8-38.9,2179.2-38.9s2099.5,2.1,2179.2,38.9c47,20.4,100.2,59.3,118.6,85.8c47,67.5,42.9,204.4-10.2,271.9c-81.8,104.2-130.8,114.5-509,114.5h-347.5v388.4v388.4h-1431h-1431V-2833.1z"/></g></g>
</svg>