<svg id="svg" version="1.1" xmlns="http://www.w3.org/2000/svg" xmlns:xlink="http://www.w3.org/1999/xlink" width="400" height="400" viewBox="0, 0, 400,400"><g id="svgg"><path id="path0" d="M192.969 6.868 C 191.035 7.603,188.018 9.056,186.263 10.098 C 183.126 11.963,182.298 13.013,177.975 20.610 L 175.806 24.423 175.767 64.946 L 175.728 105.469 158.763 105.561 C 149.431 105.612,141.557 105.620,141.264 105.579 C 137.882 105.104,130.072 111.521,127.618 116.791 C 123.315 126.033,124.855 129.978,138.988 145.900 C 142.774 150.165,145.175 153.497,144.847 154.028 C 144.535 154.532,144.630 154.719,145.062 154.451 C 146.222 153.735,152.651 160.589,151.924 161.767 C 151.553 162.366,151.640 162.544,152.150 162.229 C 153.215 161.571,160.315 169.423,159.641 170.514 C 159.362 170.965,159.497 171.110,159.942 170.835 C 160.976 170.197,168.091 178.077,167.436 179.136 C 167.167 179.572,167.312 179.703,167.758 179.427 C 168.690 178.851,176.592 187.229,176.339 188.525 C 176.247 188.997,176.598 189.398,177.120 189.418 C 177.641 189.437,181.002 192.441,184.588 196.094 C 193.116 204.779,193.040 204.729,198.484 205.215 C 205.713 205.859,209.456 203.637,220.307 192.261 C 225.210 187.121,229.556 183.122,229.966 183.375 C 230.375 183.628,230.490 183.478,230.220 183.042 C 229.566 181.983,236.680 174.103,237.714 174.742 C 238.159 175.017,238.302 174.884,238.032 174.448 C 237.378 173.389,244.493 165.509,245.527 166.148 C 245.974 166.424,246.103 166.271,245.815 165.806 C 245.145 164.723,251.510 157.688,252.568 158.342 C 253.014 158.617,253.130 158.453,252.831 157.968 C 252.526 157.476,256.691 152.106,262.468 145.543 C 275.815 130.380,277.329 126.852,274.145 118.341 C 269.982 107.215,265.696 105.554,241.002 105.494 L 226.144 105.458 225.946 70.893 C 225.680 24.558,225.690 25.000,224.906 25.000 C 224.528 25.000,224.219 24.181,224.219 23.181 C 224.219 20.568,219.957 14.506,215.735 11.115 C 213.741 9.514,211.991 7.937,211.847 7.612 C 211.703 7.287,211.301 7.197,210.954 7.412 C 210.607 7.626,208.835 7.277,207.016 6.635 C 202.707 5.115,197.354 5.204,192.969 6.868 M60.654 175.737 C 59.854 176.022,57.832 176.184,56.162 176.099 C 54.492 176.014,53.125 176.252,53.125 176.629 C 53.125 177.005,52.070 177.190,50.781 177.040 C 49.492 176.890,48.438 177.025,48.438 177.339 C 48.438 177.653,47.559 177.814,46.484 177.696 C 45.410 177.578,44.531 177.727,44.531 178.028 C 44.531 178.328,43.916 178.646,43.164 178.735 C 39.317 179.188,38.641 179.338,38.275 179.818 C 38.057 180.104,36.827 180.471,35.541 180.633 C 32.369 181.032,20.228 186.853,15.533 190.226 C 13.433 191.735,11.553 192.969,11.355 192.969 C 11.156 192.969,9.572 194.463,7.835 196.289 C -6.496 211.351,-0.723 227.494,23.390 239.788 C 28.358 242.320,32.691 244.397,33.021 244.403 C 34.666 244.431,38.281 245.501,38.283 245.961 C 38.284 246.249,39.602 246.578,41.213 246.693 C 42.823 246.808,44.249 247.221,44.381 247.610 C 44.513 247.999,45.480 248.162,46.530 247.972 C 47.579 247.781,48.438 247.938,48.438 248.320 C 48.438 248.701,49.492 248.891,50.781 248.741 C 52.070 248.591,53.125 248.784,53.125 249.171 C 53.125 249.558,54.711 249.767,56.650 249.637 C 58.589 249.506,60.344 249.672,60.550 250.005 C 60.756 250.339,67.344 250.493,75.189 250.349 C 94.630 249.992,96.875 249.859,96.875 249.061 C 96.875 248.680,97.314 248.453,97.852 248.556 C 100.257 249.018,102.196 247.257,105.469 241.637 C 112.241 230.007,127.931 216.655,140.155 212.118 C 143.988 210.695,149.219 208.444,149.219 208.217 C 149.219 202.656,132.972 187.742,123.047 184.191 C 120.898 183.422,119.023 182.444,118.879 182.017 C 118.734 181.590,118.344 181.409,118.011 181.615 C 117.677 181.821,115.334 181.248,112.804 180.343 C 110.273 179.437,107.324 178.603,106.250 178.488 C 105.176 178.374,104.209 178.201,104.102 178.105 C 103.994 178.009,103.203 177.842,102.344 177.734 C 101.484 177.627,100.693 177.449,100.586 177.340 C 100.479 177.230,99.512 177.087,98.438 177.021 C 97.363 176.955,96.111 176.669,95.655 176.386 C 95.199 176.103,93.529 175.992,91.943 176.139 C 90.356 176.287,88.884 176.125,88.670 175.779 C 88.208 175.030,62.752 174.992,60.654 175.737 M184.124 225.512 C 183.794 225.841,180.523 226.332,174.609 226.938 C 173.320 227.070,172.266 227.242,172.266 227.319 C 172.266 227.396,171.387 227.613,170.313 227.800 C 164.553 228.803,148.853 234.645,144.727 237.321 C 143.760 237.948,142.969 238.271,142.969 238.040 C 142.969 237.494,139.959 239.978,134.328 245.172 C 131.551 247.733,128.997 251.032,127.675 253.766 C 126.494 256.206,125.233 258.814,124.873 259.560 C 124.027 261.313,124.025 265.625,124.870 265.625 C 125.228 265.625,125.521 266.117,125.521 266.718 C 125.521 271.605,134.158 281.929,142.067 286.497 C 144.067 287.652,145.905 288.886,146.151 289.239 C 146.398 289.592,147.276 290.016,148.104 290.183 C 148.932 290.349,150.664 291.041,151.953 291.722 C 153.242 292.402,154.750 292.961,155.305 292.964 C 155.859 292.967,157.661 293.657,159.309 294.498 C 160.958 295.339,162.545 295.788,162.836 295.497 C 163.128 295.206,163.639 295.408,163.971 295.946 C 164.304 296.485,165.779 297.049,167.249 297.201 C 168.719 297.352,170.516 297.722,171.242 298.022 C 171.969 298.323,174.164 298.627,176.122 298.699 C 178.079 298.770,179.682 299.024,179.684 299.264 C 179.686 299.504,181.096 299.629,182.817 299.541 C 184.537 299.453,186.121 299.665,186.335 300.011 C 186.799 300.762,212.407 300.782,212.871 300.032 C 213.047 299.747,214.620 299.587,216.365 299.676 C 218.111 299.765,219.705 299.570,219.907 299.243 C 220.109 298.916,221.243 298.754,222.426 298.884 C 223.610 299.014,224.843 298.703,225.168 298.193 C 225.621 297.480,225.760 297.482,225.769 298.202 C 225.782 299.213,228.475 298.565,233.419 296.361 C 234.826 295.733,236.635 295.429,237.438 295.683 C 238.264 295.946,239.416 295.628,240.092 294.953 C 240.749 294.296,241.928 293.643,242.713 293.501 C 243.498 293.360,245.502 292.655,247.166 291.934 C 248.830 291.214,250.675 290.625,251.267 290.625 C 251.859 290.625,252.344 290.236,252.344 289.760 C 252.344 289.285,252.884 289.103,253.545 289.356 C 254.220 289.615,254.936 289.324,255.179 288.691 C 255.416 288.072,257.124 286.678,258.973 285.595 C 263.511 282.935,269.188 276.992,271.561 272.417 C 273.482 268.712,275.326 258.594,274.079 258.594 C 273.726 258.594,273.438 257.959,273.438 257.184 C 273.438 250.021,256.904 236.485,242.578 231.920 C 240.859 231.372,239.102 230.678,238.672 230.378 C 238.242 230.078,235.957 229.474,233.594 229.037 C 231.230 228.600,228.418 227.913,227.344 227.511 C 226.270 227.108,224.708 226.885,223.873 227.014 C 223.038 227.144,221.983 227.020,221.529 226.739 C 220.077 225.840,184.948 224.688,184.124 225.512 M314.844 225.202 C 314.629 225.419,311.992 225.809,308.984 226.066 C 303.732 226.517,301.768 226.803,297.070 227.800 C 295.889 228.051,294.395 228.361,293.750 228.490 C 286.066 230.029,286.091 229.991,289.559 234.823 C 300.467 250.026,302.039 268.127,293.846 284.186 C 291.744 288.307,291.706 287.965,294.837 293.164 C 296.295 295.585,297.262 297.817,296.986 298.126 C 296.710 298.434,297.100 298.466,297.852 298.196 C 298.604 297.926,299.219 298.015,299.219 298.393 C 299.219 298.772,300.106 298.984,301.191 298.865 C 302.276 298.746,303.341 298.937,303.560 299.290 C 303.778 299.643,304.445 299.744,305.042 299.515 C 305.639 299.286,306.830 299.474,307.688 299.934 C 308.849 300.555,309.333 300.520,309.576 299.798 C 309.821 299.070,310.177 299.048,311.006 299.709 C 312.289 300.732,337.296 300.962,337.918 299.956 C 338.132 299.609,339.708 299.454,341.419 299.611 C 343.131 299.767,344.531 299.624,344.531 299.292 C 344.531 298.960,345.600 298.752,346.905 298.830 C 348.211 298.908,349.433 298.722,349.621 298.418 C 349.809 298.115,350.850 298.035,351.934 298.243 C 353.039 298.454,353.906 298.256,353.906 297.792 C 353.906 297.337,354.609 297.100,355.469 297.266 C 356.328 297.431,357.031 297.266,357.031 296.899 C 357.031 296.532,357.646 296.327,358.398 296.443 C 359.150 296.559,359.948 296.375,360.171 296.034 C 360.393 295.694,362.123 295.229,364.014 295.001 C 365.905 294.773,367.691 294.199,367.984 293.726 C 368.276 293.252,369.008 292.790,369.609 292.700 C 370.211 292.609,371.143 292.260,371.680 291.924 C 372.217 291.589,372.662 291.598,372.668 291.946 C 372.675 292.294,372.974 292.115,373.332 291.550 C 373.890 290.671,375.165 290.165,377.483 289.904 C 377.775 289.871,378.480 289.404,379.051 288.867 C 379.622 288.330,382.123 286.519,384.610 284.842 C 406.689 269.955,403.376 249.767,376.573 235.870 C 373.785 234.425,370.938 233.156,370.246 233.051 C 369.553 232.945,367.264 232.119,365.157 231.216 C 363.051 230.313,359.570 229.225,357.422 228.798 C 355.273 228.370,352.637 227.824,351.563 227.584 C 350.488 227.344,348.906 227.045,348.047 226.920 C 347.188 226.795,346.484 226.628,346.484 226.548 C 346.484 226.016,315.348 224.691,314.844 225.202 M2.371 253.260 C -1.906 260.272,-0.230 271.103,6.184 277.897 C 7.080 278.846,7.813 279.988,7.813 280.436 C 7.813 280.884,8.076 281.167,8.398 281.066 C 8.721 280.964,10.991 282.371,13.443 284.191 C 15.896 286.011,18.269 287.500,18.717 287.500 C 19.165 287.500,19.531 287.828,19.531 288.229 C 19.531 288.969,21.849 289.979,22.770 289.639 C 23.047 289.537,23.954 290.069,24.786 290.822 C 25.618 291.575,26.488 292.001,26.720 291.769 C 27.206 291.283,31.249 292.988,31.252 293.680 C 31.252 293.933,32.346 294.217,33.681 294.311 C 35.016 294.405,36.542 294.841,37.071 295.281 C 37.601 295.721,38.266 295.849,38.548 295.566 C 38.831 295.283,39.063 295.486,39.062 296.016 C 39.062 296.625,39.639 296.797,40.625 296.484 C 41.484 296.212,42.187 296.331,42.187 296.749 C 42.187 297.168,42.891 297.326,43.750 297.101 C 44.665 296.862,45.312 297.077,45.312 297.621 C 45.312 298.132,46.104 298.485,47.070 298.407 C 48.037 298.329,49.004 298.341,49.219 298.435 C 49.434 298.528,50.488 298.658,51.563 298.722 C 52.637 298.786,53.867 299.060,54.297 299.330 C 54.727 299.601,56.580 299.732,58.416 299.623 C 60.251 299.513,61.888 299.641,62.052 299.907 C 62.521 300.666,86.199 300.413,87.456 299.637 C 88.168 299.197,88.687 299.265,88.873 299.823 C 89.073 300.424,89.768 300.474,91.061 299.983 C 92.103 299.587,93.486 299.466,94.134 299.715 C 94.782 299.964,95.313 299.773,95.313 299.291 C 95.313 298.747,96.200 298.572,97.656 298.828 C 99.239 299.107,100.004 298.920,100.012 298.253 C 100.021 297.514,100.193 297.533,100.698 298.329 C 101.424 299.475,102.263 298.310,105.682 291.411 L 107.422 287.900 104.885 282.817 C 102.725 278.490,101.938 276.196,101.621 273.298 C 101.562 272.766,98.896 272.915,90.234 273.935 C 80.629 275.066,51.172 274.085,51.172 272.633 C 51.172 272.549,50.117 272.363,48.828 272.220 C 47.539 272.077,45.184 271.630,43.594 271.227 C 42.004 270.824,40.510 270.688,40.273 270.924 C 40.037 271.161,39.844 271.019,39.844 270.609 C 39.844 270.199,38.715 269.778,37.335 269.672 C 35.956 269.567,34.637 269.194,34.406 268.843 C 34.174 268.492,33.457 268.206,32.813 268.208 C 28.473 268.218,15.038 260.822,8.496 254.822 L 3.957 250.660 2.371 253.260 M3.330 301.724 C -2.189 308.496,-0.598 320.148,6.965 328.353 C 8.708 330.244,9.876 332.078,9.560 332.428 C 9.243 332.777,9.419 332.813,9.951 332.507 C 10.482 332.202,11.610 332.597,12.457 333.386 C 13.303 334.175,16.824 336.326,20.279 338.168 C 23.735 340.009,26.568 341.930,26.574 342.437 C 26.583 343.059,26.800 343.023,27.242 342.325 C 27.766 341.499,28.185 341.577,29.323 342.716 C 30.107 343.499,30.861 344.053,30.999 343.945 C 31.137 343.838,31.338 343.777,31.445 343.810 C 32.079 344.004,34.294 344.513,36.311 344.929 C 37.591 345.192,38.822 345.650,39.046 345.946 C 39.636 346.726,41.485 347.113,43.945 346.973 C 45.127 346.905,46.094 347.245,46.094 347.727 C 46.094 348.210,46.598 348.411,47.215 348.174 C 47.832 347.938,48.508 348.164,48.718 348.677 C 48.991 349.343,49.336 349.275,49.929 348.438 C 50.544 347.567,50.760 347.531,50.769 348.295 C 50.777 348.967,51.323 349.152,52.344 348.828 C 53.240 348.544,53.906 348.688,53.906 349.166 C 53.906 349.625,54.434 350.000,55.078 350.000 C 55.723 350.000,56.255 349.561,56.262 349.023 C 56.271 348.277,56.427 348.288,56.922 349.069 C 57.343 349.733,58.296 349.908,59.644 349.570 C 60.955 349.241,61.719 349.368,61.719 349.915 C 61.719 351.110,65.410 351.011,65.853 349.805 C 66.139 349.023,66.418 349.023,67.246 349.805 C 68.650 351.129,85.243 351.163,86.562 349.844 C 87.292 349.115,87.500 349.115,87.500 349.844 C 87.500 350.359,88.203 350.781,89.063 350.781 C 89.922 350.781,90.625 350.392,90.625 349.916 C 90.625 349.430,91.195 349.270,91.930 349.552 C 92.647 349.828,93.553 349.602,93.942 349.050 C 94.503 348.255,94.732 348.250,95.046 349.023 C 95.264 349.561,95.786 350.000,96.205 350.000 C 96.624 350.000,96.727 349.611,96.433 349.135 C 96.083 348.569,96.408 348.432,97.374 348.739 C 99.961 349.560,100.502 347.097,100.445 334.766 L 100.391 323.047 98.047 323.195 C 96.758 323.276,92.539 323.628,88.672 323.976 C 79.874 324.769,69.340 324.785,61.719 324.017 C 53.947 323.234,47.266 322.236,47.266 321.857 C 47.266 321.782,46.387 321.595,45.313 321.442 C 34.541 319.907,15.271 311.760,11.712 307.236 C 10.948 306.264,10.038 305.469,9.690 305.469 C 9.343 305.469,7.955 304.399,6.606 303.091 C 4.673 301.218,3.979 300.928,3.330 301.724 M126.876 304.082 C 123.384 311.840,125.386 321.216,132.087 328.485 C 133.775 330.317,135.156 332.236,135.156 332.751 C 135.156 333.265,135.465 333.495,135.842 333.262 C 136.219 333.029,138.927 334.415,141.860 336.341 C 144.793 338.268,147.605 339.844,148.110 339.844 C 148.615 339.844,149.462 340.367,149.993 341.007 C 150.524 341.647,151.260 341.984,151.628 341.756 C 151.996 341.529,153.451 341.954,154.860 342.701 C 156.269 343.448,158.272 344.186,159.311 344.340 C 160.350 344.494,162.459 345.176,163.998 345.856 C 165.537 346.536,167.764 347.017,168.945 346.925 C 170.127 346.833,171.094 347.124,171.094 347.573 C 171.094 348.021,171.621 348.186,172.266 347.939 C 172.910 347.691,173.438 347.847,173.438 348.285 C 173.438 348.723,174.404 348.974,175.586 348.843 C 176.768 348.712,177.998 349.006,178.320 349.498 C 178.739 350.135,179.126 350.055,179.676 349.219 C 180.242 348.356,180.448 348.318,180.457 349.076 C 180.465 349.748,181.011 349.933,182.031 349.609 C 182.928 349.325,183.594 349.469,183.594 349.947 C 183.594 351.111,185.721 350.994,186.204 349.805 C 186.486 349.109,186.786 349.076,187.245 349.688 C 188.052 350.763,192.188 351.587,192.188 350.673 C 192.188 350.303,193.594 350.000,195.313 350.000 C 197.102 350.000,198.438 350.375,198.438 350.877 C 198.438 351.478,198.810 351.445,199.622 350.770 C 200.459 350.076,202.278 349.938,205.803 350.299 C 209.486 350.676,210.919 350.550,211.258 349.819 C 211.625 349.031,211.812 349.028,212.174 349.805 C 212.738 351.012,214.844 351.100,214.844 349.916 C 214.844 349.430,215.414 349.270,216.148 349.552 C 216.866 349.828,217.745 349.602,218.102 349.050 C 218.616 348.254,218.911 348.288,219.531 349.219 C 220.187 350.202,220.424 350.217,221.006 349.314 C 221.388 348.722,222.061 348.460,222.502 348.733 C 222.943 349.005,223.483 348.787,223.702 348.247 C 224.003 347.505,224.302 347.551,224.929 348.438 C 225.384 349.082,225.763 349.211,225.769 348.724 C 225.786 347.508,228.744 346.827,229.198 347.934 C 229.439 348.523,229.585 348.479,229.626 347.805 C 229.660 347.243,230.039 347.000,230.469 347.266 C 230.898 347.531,231.250 347.335,231.250 346.830 C 231.250 346.278,231.913 346.085,232.912 346.346 C 233.826 346.585,235.393 346.244,236.393 345.589 C 237.394 344.933,238.580 344.623,239.028 344.901 C 239.477 345.178,239.844 345.009,239.844 344.525 C 239.844 344.000,240.475 343.845,241.406 344.141 C 242.337 344.436,242.969 344.281,242.969 343.757 C 242.969 343.273,243.290 343.075,243.683 343.318 C 244.076 343.561,244.521 343.391,244.671 342.940 C 244.821 342.489,245.940 342.014,247.156 341.884 C 248.372 341.755,249.598 341.290,249.879 340.851 C 250.160 340.413,251.973 339.257,253.906 338.284 C 255.840 337.311,258.386 335.835,259.565 335.005 C 260.744 334.174,262.116 333.747,262.615 334.056 C 263.114 334.364,263.315 334.281,263.062 333.871 C 262.808 333.461,264.147 331.645,266.037 329.837 C 273.741 322.465,276.163 312.570,272.342 304.082 C 270.542 300.083,270.509 300.080,267.145 303.594 C 258.170 312.972,238.690 321.241,221.094 323.143 C 219.590 323.306,216.074 323.694,213.281 324.006 C 206.672 324.744,193.344 324.746,185.938 324.010 C 179.175 323.338,174.451 322.620,170.313 321.637 C 169.238 321.381,165.898 320.591,162.891 319.879 C 159.883 319.168,156.719 318.201,155.859 317.729 C 155.000 317.258,153.849 316.797,153.303 316.706 C 149.268 316.031,136.039 307.759,131.690 303.191 C 128.763 300.117,128.652 300.138,126.876 304.082 M390.123 305.378 C 384.835 310.257,370.845 317.740,364.344 319.168 C 363.115 319.437,361.188 320.005,360.061 320.429 C 358.935 320.853,356.825 321.322,355.374 321.470 C 353.922 321.618,352.734 321.797,352.734 321.867 C 352.734 322.025,350.357 322.551,347.266 323.076 C 338.785 324.517,318.108 324.960,308.984 323.896 C 298.241 322.643,299.290 321.418,298.953 335.606 C 298.650 348.331,298.773 349.341,300.534 348.665 C 301.186 348.415,302.036 348.700,302.423 349.300 C 303.011 350.214,303.236 350.219,303.809 349.331 C 304.316 348.543,304.638 348.507,305.059 349.189 C 305.372 349.693,306.178 349.895,306.853 349.636 C 307.527 349.377,308.359 349.617,308.703 350.169 C 309.209 350.982,309.648 350.973,311.018 350.123 C 311.948 349.547,312.926 349.380,313.191 349.753 C 313.790 350.597,334.404 350.589,335.742 349.744 C 336.297 349.393,336.719 349.484,336.719 349.954 C 336.719 350.409,337.422 350.781,338.281 350.781 C 339.141 350.781,339.844 350.423,339.844 349.985 C 339.844 349.526,340.671 349.397,341.797 349.679 C 343.160 350.021,343.754 349.849,343.762 349.108 C 343.771 348.287,343.948 348.312,344.543 349.219 C 345.189 350.202,345.424 350.217,346.006 349.314 C 346.388 348.722,347.061 348.460,347.502 348.733 C 347.943 349.005,348.483 348.787,348.702 348.247 C 349.003 347.505,349.302 347.551,349.929 348.438 C 350.538 349.299,350.760 349.338,350.769 348.587 C 350.776 348.024,351.172 347.806,351.650 348.101 C 352.128 348.396,352.825 348.153,353.200 347.561 C 353.765 346.670,353.886 346.686,353.906 347.656 C 353.926 348.615,354.053 348.635,354.604 347.764 C 354.975 347.179,356.376 346.655,357.717 346.601 C 359.059 346.546,360.156 346.249,360.156 345.942 C 360.156 345.489,364.368 344.323,366.536 344.176 C 366.823 344.156,367.297 343.901,367.589 343.609 C 367.882 343.316,368.614 343.266,369.217 343.497 C 369.820 343.728,370.313 343.507,370.313 343.006 C 370.313 342.505,370.664 342.313,371.094 342.578 C 371.523 342.844,371.875 342.749,371.875 342.367 C 371.875 341.986,373.721 340.824,375.977 339.786 C 394.051 331.469,402.924 317.367,397.721 305.229 C 395.649 300.395,395.521 300.398,390.123 305.378 M126.998 353.806 C 125.496 357.138,124.131 366.406,125.143 366.406 C 125.494 366.406,125.785 367.021,125.789 367.773 C 125.820 373.634,140.091 387.337,149.161 390.216 C 150.065 390.503,150.579 391.101,150.304 391.546 C 149.985 392.062,150.407 392.164,151.469 391.827 C 152.623 391.460,153.280 391.681,153.612 392.548 C 153.911 393.326,154.622 393.628,155.500 393.350 C 156.274 393.104,157.365 393.392,157.923 393.989 C 158.481 394.587,159.564 394.913,160.328 394.713 C 161.093 394.513,161.719 394.731,161.719 395.197 C 161.719 395.663,162.246 395.842,162.891 395.595 C 163.536 395.347,164.063 395.572,164.063 396.094 C 164.063 396.616,164.589 396.840,165.234 396.592 C 165.879 396.345,166.406 396.524,166.406 396.991 C 166.406 397.457,167.109 397.655,167.969 397.430 C 168.828 397.205,169.531 397.364,169.531 397.782 C 169.531 398.200,170.231 398.321,171.087 398.049 C 171.942 397.778,173.074 397.822,173.602 398.149 C 175.465 399.300,218.945 400.373,220.703 399.311 C 221.133 399.051,222.187 398.825,223.047 398.807 C 223.906 398.790,225.049 398.503,225.586 398.170 C 226.123 397.837,226.914 397.781,227.344 398.047 C 227.773 398.312,228.125 398.129,228.125 397.640 C 228.125 397.058,228.936 396.929,230.469 397.266 C 231.910 397.582,232.813 397.465,232.813 396.962 C 232.813 396.511,233.375 396.359,234.063 396.623 C 234.751 396.887,235.584 396.666,235.914 396.131 C 236.244 395.597,237.439 395.106,238.569 395.041 C 239.699 394.975,240.624 394.629,240.624 394.271 C 240.625 393.913,241.061 393.765,241.595 393.943 C 242.128 394.121,243.059 393.771,243.664 393.166 C 244.269 392.561,245.415 392.236,246.211 392.445 C 247.007 392.653,247.510 392.582,247.328 392.288 C 247.146 391.993,248.551 390.992,250.451 390.063 C 252.710 388.959,253.912 388.696,253.924 389.304 C 253.933 389.816,254.548 389.491,255.291 388.583 C 257.101 386.368,262.599 382.781,263.412 383.284 C 263.770 383.505,264.063 383.207,264.063 382.621 C 264.063 382.036,265.324 380.345,266.867 378.864 C 269.730 376.115,273.437 369.761,273.438 367.604 C 273.438 366.945,273.756 366.406,274.146 366.406 C 274.535 366.406,274.725 365.791,274.567 365.039 C 274.409 364.287,274.135 362.090,273.957 360.156 C 273.281 352.788,270.662 349.488,268.087 352.761 C 263.277 358.877,244.388 369.101,236.838 369.676 C 235.483 369.779,234.375 370.109,234.375 370.410 C 234.375 371.058,230.235 371.848,220.703 373.020 C 218.555 373.285,216.172 373.689,215.409 373.919 C 212.028 374.938,185.656 374.275,178.759 372.998 C 177.336 372.734,175.293 372.400,174.219 372.256 C 173.145 372.111,171.387 371.811,170.313 371.589 C 169.238 371.368,167.129 370.962,165.625 370.687 C 155.123 368.770,140.772 361.704,134.320 355.273 C 128.976 349.948,128.758 349.904,126.998 353.806 " stroke="none" fill="#000000" fill-rule="evenodd"></path></g></svg>