<!-- Generated by IcoMoon.io -->
<svg version="1.1" xmlns="http://www.w3.org/2000/svg" width="913" height="1024" viewBox="0 0 913 1024">
<title></title>
<g id="icomoon-ignore">
</g>
<path fill="#000" d="M418.481 12.441c-103.292 35.902-319.806 114.769-375.837 136.902-30.096 11.888-31.021 13.153-34.742 47.621-45.057 417.353 90.214 718.49 363.808 809.898 65.635 21.927 104.441 21.934 169.97 0.023 260.97-87.26 394.767-360.748 368.374-752.974-6.24-92.73-5.724-91.372-39.653-104.6-93.189-36.338-407.595-149.475-414.801-149.265-0.874 0.025-17.578 5.603-37.119 12.395zM500.57 241.36c35.014 2.902 63.893 23.347 78.895 55.854 6.719 14.559 8.708 30.929 8.781 72.251 0.016 10.395 0.342 28.849 0.721 41.011l0.687 22.112h7.527c16.703 0 24.628 3.196 36.144 14.582 15.534 15.356 15.479 14.881 15.489 129.614 0.007 87.783-0.872 108.87-4.847 116.235-4.032 7.473-16.507 19.726-23.632 23.212l-5.795 2.833-41.605 0.916c-99.555 2.189-270.064 0.621-277.657-2.553-8.863-3.701-22.247-16.767-27.189-26.539-5.995-11.852-5.084-218.098 1.016-230.207 8.731-17.329 26.724-28.094 46.954-28.094h7.527l0.685-21.16c0.379-11.637 0.703-30.564 0.724-42.057 0.078-44.397 1.598-56.676 8.961-72.466 14.902-31.945 43.575-52.728 76.511-55.452 14.584-1.205 75.909-1.269 90.103-0.094zM419.004 305.098c-27.288 2.228-30.226 10.573-30.274 85.954l-0.027 41.536h135.835l-0.030-33.699c-0.068-74.603-2.046-84.333-18.58-91.409-5.669-2.427-66.094-4.084-86.925-2.384zM448.632 497.413c-31.632 6.26-42.242 45.461-18.543 68.507l6.557 6.377 0.322 38.032c0.416 48.977-0.918 45.868 19.653 45.868 20.548 0 19.235 3.034 19.664-45.37l0.333-37.536 6.342-6.872c28.42-30.79 5.489-76.886-34.329-69.004z"></path>
</svg>
