<!-- Generated by IcoMoon.io -->
<svg version="1.1" xmlns="http://www.w3.org/2000/svg" width="1024" height="1024" viewBox="0 0 1024 1024">
<title></title>
<g id="icomoon-ignore">
</g>
<path fill="#000" d="M984 381.888c4.816-2.818 8-7.965 8-13.856 0-0.011 0-0.022 0-0.033v0.002-128c0-0.009 0-0.020 0-0.032 0-5.891-3.184-11.038-7.925-13.816l-0.076-0.041-112-64c-2.28-1.325-5.016-2.107-7.936-2.107s-5.656 0.782-8.013 2.148l0.077-0.041-112 64c-4.876 2.794-8.112 7.961-8.128 13.886v38.114l-96-48v-118.112c0-0.009 0-0.020 0-0.032 0-5.891-3.184-11.038-7.925-13.816l-0.076-0.041-112-64c-2.28-1.325-5.016-2.107-7.936-2.107s-5.656 0.782-8.013 2.148l0.077-0.041-112 64c-4.876 2.794-8.112 7.961-8.128 13.886v118.114l-96 48v-38.112c0-0.009 0-0.020 0-0.032 0-5.891-3.184-11.038-7.925-13.816l-0.076-0.041-112-64c-2.28-1.325-5.016-2.107-7.936-2.107s-5.656 0.782-8.013 2.148l0.077-0.041-112 64c-4.876 2.794-8.112 7.961-8.128 13.886v128.002c0 0.009 0 0.020 0 0.032 0 5.891 3.184 11.038 7.925 13.816l0.076 0.041 104 59.392v141.44l-104 59.392c-4.816 2.818-8 7.965-8 13.856 0 0.011 0 0.022 0 0.033v-0.002 128c0 0.009 0 0.020 0 0.032 0 5.891 3.184 11.038 7.925 13.816l0.076 0.041 112 64c2.28 1.325 5.016 2.107 7.936 2.107s5.656-0.782 8.013-2.148l-0.077 0.041 103.696-59.2 112.432 70.192v39.12c0 0.009 0 0.020 0 0.032 0 5.891 3.184 11.038 7.925 13.816l0.076 0.041 112 64c2.28 1.325 5.016 2.107 7.936 2.107s5.656-0.782 8.013-2.148l-0.077 0.041 112-64c4.876-2.794 8.112-7.961 8.128-13.886v-39.122l112.368-70.24 103.696 59.2c2.28 1.325 5.016 2.107 7.936 2.107s5.656-0.782 8.013-2.148l-0.077 0.041 112-64c4.837-2.801 8.044-7.944 8.064-13.837v-128.003c0-0.009 0-0.020 0-0.032 0-5.891-3.184-11.038-7.925-13.816l-0.076-0.041-104-59.392v-141.44zM880 404.432v-91.2l80-45.712v91.2zM864 701.568l-79.76-45.568 79.76-45.568 79.76 45.568zM768 267.568l80 45.712v91.2l-80-45.76zM864 194.432l79.76 45.568-79.76 45.568-79.76-45.568zM512 829.632l-79.76-45.632 79.76-45.568 79.76 45.568zM416 475.568l80 45.712v91.2l-80-45.76zM528 521.28l80-45.712v91.2l-80 45.712zM512 493.568l-79.76-45.568 79.76-45.568 79.76 45.568zM416 139.568l80 45.712v91.2l-80-45.76zM528 185.28l80-45.712v91.2l-80 45.712zM512 66.432l79.76 45.568-79.76 45.568-79.76-45.568zM176 313.28l80-45.712v91.2l-80 45.712zM160 194.432l79.76 45.568-79.76 45.568-79.76-45.568zM64 267.568l80 45.712v91.2l-80-45.76zM160 701.568l-79.76-45.568 79.76-45.568 79.76 45.568zM64 683.568l80 45.712v91.2l-80-45.76zM176 820.432v-91.2l80-45.712v91.2zM288 775.12v-119.12c0-0.009 0-0.020 0-0.032 0-5.891-3.184-11.038-7.925-13.816l-0.076-0.041-104-59.392v-141.44l104-59.392c4.816-2.818 8-7.965 8-13.856 0-0.011 0-0.022 0-0.033v0.002-54.112l111.504-55.744 96.496 55.136v61.44l-104 59.392c-4.816 2.818-8 7.965-8 13.856 0 0.011 0 0.022 0 0.033v-0.002 128c0 0.009 0 0.020 0 0.032 0 5.891 3.184 11.038 7.925 13.816l0.076 0.041 104 59.392v61.44l-104 59.392c-4.816 2.818-8 7.965-8 13.856 0 0.011 0 0.022 0 0.033v-0.002 51.2zM416 811.568l80 45.712v91.2l-80-45.76zM528 948.432v-91.2l80-45.712v91.2zM632 770.112l-104-59.392v-61.44l104-59.392c4.816-2.818 8-7.965 8-13.856 0-0.011 0-0.022 0-0.033v0.002-128c0-0.009 0-0.020 0-0.032 0-5.891-3.184-11.038-7.925-13.816l-0.076-0.041-104-59.392v-61.44l96.496-55.136 111.504 55.744v54.112c0 0.009 0 0.020 0 0.032 0 5.891 3.184 11.038 7.925 13.816l0.076 0.041 104 59.392v141.44l-104 59.392c-4.816 2.818-8 7.965-8 13.856 0 0.011 0 0.022 0 0.033v-0.002 119.12l-96 60.080v-51.2c0-0.009 0-0.020 0-0.032 0-5.891-3.184-11.038-7.925-13.816l-0.076-0.041zM768 683.568l80 45.712v91.2l-80-45.76zM880 820.432v-91.2l80-45.712v91.2z"></path>
</svg>
