<svg height="512pt" viewBox="0 0 512 512.00165" width="512pt" xmlns="http://www.w3.org/2000/svg"><path d="m509.691406 15.4375-1.390625-11.738281-11.738281-1.390625c-62.679688-7.425782-125.855469 3.140625-182.707031 30.554687-56.847657 27.414063-104.457031 70.269531-137.671875 123.941407l-36.628906 59.1875-84.324219.113281-55.230469 55.234375 62.839844 62.835937-48.6875 48.6875 114.984375 114.984375 48.6875-48.683594 62.839843 62.835938 55.230469-55.230469.117188-84.320312 59.1875-36.632813c53.667969-33.214844 96.523437-80.820312 123.941406-137.667968 27.414063-56.855469 37.976563-120.03125 30.550781-182.710938zm-467.269531 255.902344 25.253906-25.253906 53.300781-.074219-39.714843 64.167969zm14.152344 111.523437 27.472656-27.476562 72.570313 72.566406-27.476563 27.476563zm209.34375 61.464844-25.253907 25.253906-38.84375-38.839843 64.171876-39.714844zm73.492187-134.019531-159.378906 98.640625-76.980469-76.980469 98.640625-159.378906c12.824219-20.726563 28.019532-39.671875 45.207032-56.527344l33.394531 33.394531c-13.578125 23.023438-10.492188 53.230469 9.265625 72.984375 11.707031 11.710938 27.085937 17.5625 42.464844 17.5625 10.570312 0 21.140624-2.765625 30.519531-8.296875l33.394531 33.394531c-16.855469 17.1875-35.800781 32.382813-56.527344 45.207032zm13.871094-109.074219c-11.722656 11.722656-30.792969 11.722656-42.515625 0-11.71875-11.722656-11.71875-30.792969 0-42.511719 11.722656-11.71875 30.792969-11.722656 42.515625 0 5.675781 5.675782 8.804688 13.226563 8.804688 21.257813 0 8.027343-3.128907 15.574219-8.804688 21.253906zm98.839844-16.117187c-9.9375 20.605468-22.109375 39.867187-36.242188 57.507812l-32.117187-32.117188c5.421875-9.152343 8.316406-19.617187 8.316406-30.527343 0-16.042969-6.246094-31.125-17.589844-42.46875-19.753906-19.753907-49.960937-22.839844-72.984375-9.261719l-32.125-32.125c17.636719-14.132812 36.902344-26.308594 57.507813-36.242188 48.082031-23.1875 101.148437-33.117187 154.195312-28.960937 4.160157 53.042969-5.773437 106.109375-28.960937 154.195313zm0 0"/></svg>