<svg id="svg" xmlns="http://www.w3.org/2000/svg" xmlns:xlink="http://www.w3.org/1999/xlink" width="400" height="378.021978021978" viewBox="0, 0, 400,378.021978021978"><g id="svgg"><path id="path0" d="M249.890 0.755 C 245.047 1.429,235.012 4.868,199.560 18.007 C 195.088 19.665,187.275 22.539,182.198 24.395 C 171.060 28.466,163.755 31.157,152.967 35.162 C 81.439 61.715,77.664 63.166,78.682 63.713 C 79.761 64.293,89.290 64.609,107.253 64.663 L 124.176 64.713 132.088 61.774 C 136.440 60.158,143.758 57.451,148.352 55.759 C 159.737 51.564,167.386 48.740,174.945 45.938 C 178.451 44.638,185.967 41.866,191.648 39.778 C 197.330 37.690,205.341 34.730,209.451 33.200 C 213.560 31.670,220.484 29.096,224.835 27.479 C 229.187 25.862,236.198 23.247,240.417 21.669 L 248.086 18.799 256.241 19.014 C 270.627 19.394,278.954 24.408,284.758 36.186 C 286.782 40.292,295.385 62.534,295.385 63.659 C 295.385 64.512,311.132 65.123,313.151 64.349 C 314.157 63.962,314.039 63.165,312.142 57.562 C 307.227 43.044,300.593 27.233,297.402 22.430 C 287.656 7.765,267.055 -1.633,249.890 0.755 M85.495 83.977 C 60.615 84.233,58.378 84.318,54.474 85.164 C 27.642 90.975,4.823 114.899,0.833 141.403 C -0.387 149.505,0.035 309.825,1.303 320.194 C 2.369 328.909,6.190 338.606,11.939 347.191 C 20.956 360.654,32.740 369.108,51.648 375.679 L 56.044 377.207 179.560 377.285 C 308.232 377.366,310.728 377.335,320.170 375.547 C 337.276 372.308,357.539 355.669,365.891 338.003 C 371.312 326.537,372.742 317.162,372.746 293.077 L 372.747 281.758 331.978 281.752 C 289.735 281.745,281.078 281.481,274.898 280.014 C 244.615 272.821,224.651 242.225,230.755 212.363 C 235.526 189.026,253.668 170.566,276.484 165.835 C 279.308 165.249,286.435 165.124,326.264 164.962 L 372.747 164.772 372.743 158.320 C 372.733 139.503,369.343 127.228,360.513 114.026 C 349.805 98.018,331.609 86.505,314.412 84.856 C 304.663 83.922,149.106 83.324,85.495 83.977 M128.791 122.198 C 128.791 130.110,128.885 131.429,129.451 131.429 C 129.813 131.429,130.110 131.626,130.110 131.868 C 130.110 132.158,143.956 132.308,170.769 132.308 L 211.429 132.308 211.429 157.582 L 211.429 182.857 204.176 182.857 L 196.923 182.857 196.923 166.377 C 196.923 150.374,196.898 149.882,196.044 149.349 C 195.560 149.047,195.165 148.550,195.165 148.246 C 195.165 147.803,180.523 147.692,121.957 147.692 L 48.749 147.692 47.685 148.901 L 46.621 150.110 46.607 166.484 L 46.593 182.857 39.341 182.857 L 32.088 182.857 32.088 157.582 L 32.088 132.308 72.747 132.308 C 99.560 132.308,113.407 132.158,113.407 131.868 C 113.407 131.626,113.703 131.429,114.066 131.429 C 114.631 131.429,114.725 130.110,114.725 122.198 L 114.725 112.967 121.758 112.967 L 128.791 112.967 128.791 122.198 M184.176 170.440 L 184.176 178.242 121.758 178.242 L 59.341 178.242 59.341 170.440 L 59.341 162.637 121.758 162.637 L 184.176 162.637 184.176 170.440 M286.374 184.006 C 267.950 185.616,254.852 197.088,250.722 215.232 C 246.437 234.059,259.544 256.148,277.810 260.881 C 283.155 262.266,375.693 263.203,384.396 261.961 C 389.770 261.193,394.887 257.724,398.307 252.527 L 399.465 250.769 399.693 223.798 L 399.922 196.826 398.005 193.668 C 394.734 188.280,391.480 185.710,386.445 184.536 C 384.540 184.092,291.056 183.596,286.374 184.006 M178.901 215.714 L 178.901 238.242 121.099 238.242 L 63.297 238.242 63.297 215.714 L 63.297 193.187 121.099 193.187 L 178.901 193.187 178.901 215.714 M296.108 201.797 C 316.926 208.137,315.939 239.110,294.743 244.597 C 278.347 248.841,262.566 232.047,268.046 216.188 C 272.068 204.549,284.392 198.229,296.108 201.797 M78.791 209.389 C 77.084 210.235,77.292 219.694,79.059 221.542 L 80.315 222.857 121.679 222.857 L 163.043 222.857 163.939 221.895 C 165.226 220.514,165.299 210.666,164.031 209.519 C 163.028 208.610,80.616 208.485,78.791 209.389 M202.127 295.713 L 201.978 338.459 194.835 338.460 L 187.692 338.462 187.692 334.035 C 187.692 330.784,187.525 329.441,187.064 328.980 C 186.286 328.202,56.703 328.014,56.703 328.791 C 56.703 329.033,56.308 329.231,55.824 329.231 C 55.001 329.231,54.945 329.524,54.945 333.846 L 54.945 338.462 48.132 338.462 L 41.319 338.462 41.319 295.714 L 41.319 252.967 121.797 252.967 L 202.276 252.967 202.127 295.713 M56.703 269.011 C 56.703 269.253,56.308 269.451,55.824 269.451 C 54.988 269.451,54.945 269.744,54.945 275.385 C 54.945 281.026,54.988 281.319,55.824 281.319 C 56.313 281.319,56.703 281.612,56.703 281.978 C 56.703 282.557,60.108 282.637,84.711 282.637 L 112.719 282.637 113.722 281.470 C 115.112 279.852,115.246 271.065,113.904 269.518 L 113.084 268.571 84.893 268.571 C 66.393 268.571,56.703 268.723,56.703 269.011 M129.560 269.183 C 128.649 269.876,128.367 281.319,129.262 281.319 C 129.521 281.319,130.030 281.615,130.392 281.978 C 131.580 283.166,185.911 282.950,186.935 281.753 C 187.957 280.560,188.063 270.198,187.064 269.199 C 186.163 268.298,130.747 268.283,129.560 269.183 M56.703 298.901 C 56.703 299.487,56.410 299.780,55.824 299.780 C 54.362 299.780,54.499 309.590,55.986 311.319 L 57.025 312.527 84.679 312.527 L 112.332 312.527 113.528 311.164 C 115.263 309.186,115.339 299.780,113.620 299.780 C 113.266 299.780,113.136 299.447,113.279 298.901 C 113.507 298.029,113.293 298.022,85.106 298.022 C 56.996 298.022,56.703 298.031,56.703 298.901 M129.560 298.634 C 128.521 299.423,128.380 310.769,129.409 310.769 C 129.811 310.769,129.947 311.077,129.798 311.648 C 129.570 312.521,129.783 312.527,158.081 312.524 L 186.593 312.521 187.143 311.338 C 187.961 309.576,187.903 299.780,187.074 299.780 C 186.672 299.780,186.536 299.472,186.686 298.901 C 186.981 297.774,131.038 297.512,129.560 298.634 " stroke="none" fill="#000000" fill-rule="evenodd"></path></g></svg>