<svg id="svg" version="1.1" xmlns="http://www.w3.org/2000/svg" xmlns:xlink="http://www.w3.org/1999/xlink" width="400" height="400" viewBox="0, 0, 400,400"><g id="svgg"><path id="path0" d="M193.592 0.704 C 191.969 1.244,190.490 2.546,183.959 9.180 C 180.469 12.725,177.222 15.625,176.743 15.625 C 176.265 15.625,175.623 16.031,175.316 16.527 C 174.940 17.136,175.115 17.219,175.856 16.783 C 177.038 16.088,175.428 18.149,171.128 22.837 C 169.643 24.457,167.952 25.781,167.371 25.781 C 166.790 25.781,166.498 26.080,166.724 26.444 C 167.262 27.315,161.008 34.375,159.698 34.375 C 159.141 34.375,158.435 34.781,158.129 35.277 C 157.750 35.889,157.924 35.967,158.668 35.518 C 159.537 34.994,159.522 35.173,158.597 36.373 C 155.574 40.296,152.012 43.637,151.313 43.205 C 150.888 42.942,150.774 43.106,151.060 43.569 C 151.730 44.652,145.365 51.687,144.307 51.033 C 143.865 50.760,143.745 50.922,144.038 51.396 C 144.456 52.073,139.041 59.159,136.745 60.938 C 134.824 62.425,125.710 74.620,125.301 76.249 C 122.926 85.714,132.729 100.979,140.483 99.890 C 140.776 99.849,148.650 99.857,157.981 99.907 L 174.947 100.000 174.986 140.544 L 175.025 181.089 177.796 186.052 C 181.333 192.388,181.784 192.935,185.547 195.440 C 192.062 199.777,200.250 201.095,206.611 198.829 C 208.313 198.223,209.845 197.865,210.014 198.035 C 210.184 198.205,210.725 198.010,211.216 197.603 C 219.519 190.718,223.438 185.801,223.438 182.269 C 223.438 181.279,223.724 180.469,224.074 180.469 C 224.926 180.469,225.157 171.334,225.284 132.624 L 225.391 100.013 240.625 99.967 C 260.681 99.905,260.827 99.890,265.147 97.358 C 269.325 94.910,272.690 90.225,274.235 84.709 C 276.296 77.348,274.186 73.795,254.872 52.102 C 253.032 50.036,251.765 47.960,252.056 47.490 C 252.349 47.015,252.229 46.854,251.787 47.127 C 250.729 47.781,244.364 40.746,245.034 39.663 C 245.320 39.200,245.206 39.036,244.781 39.299 C 244.082 39.731,240.519 36.389,237.497 32.467 C 236.572 31.266,236.557 31.088,237.425 31.611 C 238.170 32.060,238.344 31.983,237.965 31.371 C 237.659 30.875,236.979 30.469,236.454 30.469 C 235.149 30.469,230.375 25.304,230.129 23.626 C 230.019 22.878,229.571 22.266,229.134 22.266 C 228.696 22.266,224.159 17.974,219.052 12.729 C 207.451 0.815,201.584 -1.956,193.592 0.704 M60.345 175.664 C 59.851 175.970,58.024 176.141,56.285 176.044 C 54.547 175.946,53.125 176.143,53.125 176.480 C 53.125 176.817,52.070 177.030,50.781 176.953 C 49.492 176.876,48.438 177.050,48.438 177.339 C 48.438 177.628,47.646 177.793,46.680 177.707 C 45.713 177.621,43.742 178.029,42.300 178.614 C 40.858 179.199,39.388 179.498,39.033 179.279 C 38.679 179.060,38.154 179.262,37.866 179.728 C 37.578 180.194,36.885 180.400,36.325 180.185 C 35.766 179.971,35.070 180.035,34.777 180.327 C 34.484 180.620,34.010 180.873,33.724 180.889 C 33.438 180.906,30.078 182.400,26.259 184.210 C 22.440 186.019,19.041 187.500,18.707 187.500 C 18.373 187.500,17.982 187.764,17.839 188.086 C 17.531 188.777,12.012 192.969,11.408 192.969 C 8.087 192.969,0.000 207.090,-0.000 212.891 C -0.000 218.595,9.433 234.865,11.928 233.465 C 12.028 233.409,14.043 234.588,16.406 236.085 C 19.901 238.299,31.136 243.882,32.790 244.227 C 36.313 244.962,38.281 245.606,38.281 246.024 C 38.281 246.502,39.772 246.774,43.164 246.915 C 43.916 246.946,44.531 247.282,44.531 247.660 C 44.531 248.038,45.227 248.214,46.077 248.050 C 46.928 247.886,47.799 248.037,48.014 248.385 C 48.229 248.733,49.467 248.894,50.765 248.743 C 52.063 248.592,53.125 248.784,53.125 249.171 C 53.125 249.558,54.711 249.767,56.650 249.637 C 58.589 249.506,60.345 249.673,60.552 250.009 C 61.049 250.812,88.945 250.822,89.441 250.019 C 89.652 249.678,91.411 249.506,93.350 249.637 C 95.289 249.767,96.875 249.536,96.875 249.122 C 96.875 248.708,97.314 248.453,97.852 248.556 C 100.266 249.020,102.222 247.235,105.747 241.353 C 114.011 227.563,125.512 218.423,145.117 210.064 C 148.589 208.584,150.709 206.250,148.582 206.250 C 148.232 206.250,147.400 205.107,146.732 203.711 C 144.081 198.162,129.244 185.156,125.565 185.156 C 124.997 185.156,124.171 184.796,123.732 184.357 C 123.292 183.917,122.105 183.398,121.094 183.203 C 120.083 183.008,119.054 182.547,118.807 182.179 C 118.352 181.498,109.812 179.026,106.250 178.544 C 105.176 178.399,104.209 178.201,104.102 178.105 C 103.994 178.009,103.203 177.842,102.344 177.734 C 101.484 177.627,100.693 177.449,100.586 177.340 C 100.479 177.230,99.336 177.048,98.047 176.935 C 96.758 176.822,95.703 176.641,95.703 176.533 C 95.703 175.629,61.752 174.795,60.345 175.664 M184.121 225.514 C 183.925 225.710,182.233 226.038,180.359 226.244 C 172.747 227.080,171.307 227.331,167.188 228.537 C 164.824 229.230,161.836 230.083,160.547 230.433 C 157.451 231.275,146.687 235.902,145.742 236.797 C 145.334 237.184,144.396 237.500,143.659 237.500 C 142.921 237.500,142.201 237.794,142.057 238.154 C 141.914 238.514,140.383 239.832,138.656 241.084 C 132.515 245.532,125.781 254.354,125.781 257.950 C 125.781 258.683,125.430 259.500,125.000 259.766 C 120.357 262.635,129.996 278.481,140.724 285.613 C 143.660 287.565,146.267 289.491,146.515 289.894 C 146.764 290.296,147.825 290.625,148.874 290.625 C 149.923 290.625,150.781 290.933,150.781 291.309 C 150.781 291.871,153.125 292.625,156.058 293.007 C 156.379 293.049,157.777 293.785,159.165 294.643 C 160.554 295.501,162.088 295.958,162.573 295.658 C 163.059 295.358,163.694 295.498,163.985 295.968 C 164.276 296.439,165.731 296.924,167.218 297.045 C 168.705 297.166,170.098 297.488,170.313 297.761 C 170.527 298.033,172.147 298.421,173.911 298.622 C 175.676 298.823,177.521 299.236,178.013 299.540 C 178.508 299.846,178.912 299.637,178.918 299.070 C 178.926 298.445,179.154 298.351,179.504 298.828 C 179.820 299.258,181.430 299.609,183.082 299.609 C 184.734 299.609,186.230 299.842,186.405 300.125 C 186.823 300.800,212.452 300.710,212.871 300.032 C 213.047 299.747,214.620 299.587,216.365 299.676 C 218.111 299.765,219.705 299.570,219.907 299.243 C 220.109 298.916,221.243 298.754,222.426 298.884 C 223.610 299.014,224.843 298.703,225.168 298.193 C 225.597 297.517,225.761 297.510,225.769 298.166 C 225.778 298.822,226.733 298.779,229.297 298.008 C 231.230 297.426,232.813 297.149,232.813 297.393 C 232.813 297.637,233.701 297.254,234.788 296.542 C 235.874 295.830,237.111 295.463,237.536 295.726 C 237.962 295.988,239.446 295.501,240.835 294.643 C 242.223 293.785,243.535 293.082,243.750 293.081 C 243.965 293.080,245.195 292.671,246.484 292.173 C 247.773 291.675,249.505 291.131,250.333 290.965 C 251.161 290.798,252.088 290.257,252.394 289.762 C 252.700 289.267,253.344 289.105,253.824 289.403 C 254.305 289.700,254.904 289.408,255.155 288.754 C 255.635 287.503,262.470 283.122,263.477 283.420 C 263.799 283.516,264.063 283.229,264.063 282.782 C 264.063 282.336,265.475 280.501,267.201 278.705 C 271.123 274.623,273.611 269.570,273.989 264.915 C 274.149 262.942,274.409 260.713,274.567 259.961 C 274.725 259.209,274.535 258.594,274.146 258.594 C 273.756 258.594,273.438 257.959,273.438 257.184 C 273.438 252.191,262.265 241.054,251.953 235.767 C 246.559 233.001,237.794 229.822,233.203 228.966 C 231.055 228.565,228.418 227.909,227.344 227.508 C 226.270 227.107,224.708 226.885,223.873 227.014 C 223.038 227.144,221.983 227.020,221.529 226.739 C 220.054 225.826,184.958 224.677,184.121 225.514 M314.844 225.219 C 314.629 225.443,311.992 225.822,308.984 226.060 C 303.321 226.509,300.223 226.946,296.875 227.768 C 293.440 228.612,291.062 229.052,289.266 229.176 C 286.544 229.364,286.620 230.728,289.583 234.858 C 300.131 249.563,301.889 266.921,294.438 282.813 L 292.058 287.891 294.662 293.134 C 296.214 296.259,297.660 298.242,298.242 298.041 C 298.779 297.857,299.219 298.015,299.219 298.393 C 299.219 298.772,300.106 298.984,301.191 298.865 C 302.276 298.746,303.366 298.976,303.614 299.377 C 303.862 299.778,304.582 299.908,305.214 299.665 C 305.846 299.423,307.012 299.572,307.806 299.997 C 308.835 300.547,309.343 300.490,309.576 299.798 C 309.821 299.070,310.177 299.048,311.006 299.709 C 312.289 300.732,337.296 300.962,337.918 299.956 C 338.132 299.609,339.708 299.454,341.419 299.611 C 343.131 299.767,344.531 299.624,344.531 299.292 C 344.531 298.960,345.600 298.752,346.905 298.830 C 348.211 298.908,349.433 298.722,349.621 298.418 C 349.809 298.115,350.850 298.035,351.934 298.243 C 353.039 298.454,353.906 298.256,353.906 297.792 C 353.906 297.337,354.609 297.100,355.469 297.266 C 356.328 297.431,357.031 297.255,357.031 296.875 C 357.031 296.495,357.734 296.319,358.594 296.484 C 359.453 296.650,360.156 296.500,360.156 296.150 C 360.156 295.801,361.718 295.340,363.627 295.125 C 365.535 294.909,367.673 294.157,368.377 293.453 C 369.081 292.749,369.956 292.358,370.322 292.584 C 370.687 292.809,371.210 292.631,371.484 292.188 C 371.759 291.744,372.310 291.583,372.710 291.830 C 373.110 292.077,373.438 291.951,373.438 291.550 C 373.438 291.149,374.450 290.618,375.687 290.370 C 376.924 290.123,378.481 289.376,379.147 288.710 C 379.813 288.045,380.585 287.500,380.863 287.500 C 381.881 287.500,390.384 280.535,393.284 277.324 C 403.599 265.906,400.053 251.190,384.375 240.353 C 380.707 237.818,372.235 233.409,370.453 233.109 C 369.885 233.013,367.245 232.063,364.584 230.998 C 361.924 229.933,358.521 228.855,357.022 228.603 C 355.523 228.351,353.242 227.920,351.953 227.645 C 350.664 227.371,348.906 227.045,348.047 226.920 C 347.188 226.795,346.484 226.628,346.484 226.548 C 346.484 225.986,315.360 224.678,314.844 225.219 M2.397 253.217 C -1.906 260.273,-0.248 271.084,6.184 277.897 C 7.080 278.846,7.813 279.988,7.813 280.436 C 7.813 280.884,8.185 281.250,8.640 281.250 C 9.596 281.250,15.722 285.872,16.622 287.272 C 16.956 287.792,17.747 288.018,18.380 287.775 C 19.013 287.532,19.531 287.698,19.531 288.145 C 19.531 288.950,21.800 289.997,22.770 289.639 C 23.047 289.537,23.926 290.043,24.723 290.765 C 25.520 291.486,26.436 292.101,26.758 292.132 C 27.080 292.162,27.432 292.214,27.539 292.247 C 27.646 292.280,28.431 292.437,29.283 292.595 C 30.134 292.754,30.948 293.235,31.091 293.664 C 31.234 294.093,31.856 294.250,32.472 294.013 C 33.089 293.776,33.594 293.897,33.594 294.280 C 33.594 294.664,34.297 295.045,35.156 295.126 C 38.558 295.450,39.063 295.599,39.062 296.277 C 39.062 296.664,39.766 296.757,40.625 296.484 C 41.484 296.212,42.187 296.344,42.187 296.777 C 42.188 297.211,42.891 297.431,43.750 297.266 C 44.609 297.100,45.313 297.337,45.313 297.792 C 45.313 298.256,46.180 298.454,47.284 298.243 C 48.369 298.035,49.415 298.123,49.609 298.437 C 49.803 298.751,50.849 298.911,51.934 298.792 C 53.019 298.673,53.906 298.898,53.906 299.293 C 53.906 299.687,55.673 299.880,57.831 299.720 C 59.990 299.560,61.890 299.645,62.054 299.910 C 62.521 300.666,86.202 300.412,87.456 299.637 C 88.168 299.197,88.687 299.265,88.873 299.823 C 89.073 300.424,89.768 300.474,91.061 299.983 C 92.103 299.587,93.486 299.466,94.134 299.715 C 94.782 299.964,95.313 299.824,95.313 299.405 C 95.313 298.986,96.367 298.765,97.656 298.915 C 99.134 299.087,100.004 298.833,100.012 298.227 C 100.021 297.540,100.216 297.568,100.696 298.326 C 101.496 299.589,101.552 299.514,105.152 292.369 C 106.509 289.676,107.353 287.308,107.027 287.107 C 106.285 286.648,102.605 277.671,102.007 274.861 C 101.522 272.584,101.204 272.555,91.016 273.873 C 82.246 275.007,51.172 274.040,51.172 272.633 C 51.172 272.549,50.117 272.363,48.828 272.220 C 47.539 272.077,45.078 271.575,43.359 271.105 C 41.641 270.635,39.180 270.059,37.891 269.826 C 36.602 269.593,35.213 269.080,34.805 268.685 C 34.396 268.291,33.342 267.967,32.461 267.964 C 31.580 267.961,29.927 267.472,28.786 266.878 C 27.646 266.283,25.470 265.386,23.951 264.884 C 21.399 264.042,11.245 257.821,10.193 256.456 C 9.940 256.128,8.445 254.670,6.871 253.217 L 4.009 250.574 2.397 253.217 M3.265 301.784 C -2.232 308.409,-0.598 320.149,6.965 328.353 C 8.708 330.244,9.876 332.051,9.560 332.367 C 9.243 332.684,9.336 332.828,9.766 332.687 C 10.462 332.459,16.193 335.553,17.188 336.693 C 17.402 336.940,18.545 337.566,19.727 338.085 C 20.908 338.604,21.875 339.377,21.875 339.802 C 21.875 340.228,22.381 340.382,22.999 340.145 C 23.617 339.908,24.723 340.415,25.457 341.273 C 26.192 342.130,27.303 342.635,27.928 342.396 C 28.553 342.156,29.340 342.407,29.678 342.953 C 30.015 343.499,31.122 344.081,32.138 344.246 C 37.563 345.129,39.063 345.559,39.063 346.229 C 39.063 346.635,39.390 346.765,39.790 346.518 C 40.190 346.271,40.731 346.414,40.992 346.837 C 41.253 347.259,42.508 347.397,43.780 347.142 C 45.343 346.830,46.094 346.992,46.094 347.642 C 46.094 348.172,46.598 348.411,47.215 348.174 C 47.832 347.938,48.508 348.164,48.718 348.677 C 48.991 349.343,49.336 349.275,49.929 348.438 C 50.544 347.567,50.760 347.531,50.769 348.295 C 50.777 348.967,51.323 349.152,52.344 348.828 C 53.240 348.544,53.906 348.688,53.906 349.166 C 53.906 349.625,54.434 350.000,55.078 350.000 C 55.723 350.000,56.255 349.561,56.262 349.023 C 56.271 348.277,56.427 348.288,56.922 349.069 C 57.343 349.733,58.296 349.908,59.644 349.570 C 60.955 349.241,61.719 349.368,61.719 349.915 C 61.719 350.392,62.598 350.781,63.672 350.781 C 64.746 350.781,65.625 350.359,65.625 349.844 C 65.625 349.115,65.833 349.115,66.563 349.844 C 67.855 351.137,85.270 351.137,86.562 349.844 C 87.292 349.115,87.500 349.115,87.500 349.844 C 87.500 350.359,88.203 350.781,89.063 350.781 C 89.922 350.781,90.625 350.392,90.625 349.916 C 90.625 349.439,91.194 349.270,91.896 349.539 C 92.595 349.807,93.650 349.626,94.240 349.137 C 95.025 348.485,95.312 348.481,95.313 349.123 C 95.313 349.605,95.685 350.000,96.140 350.000 C 96.595 350.000,96.727 349.611,96.433 349.135 C 96.080 348.565,96.417 348.435,97.421 348.754 C 100.072 349.595,100.709 346.659,100.543 334.375 L 100.391 323.047 98.047 323.176 C 96.758 323.247,92.539 323.588,88.672 323.932 C 76.634 325.005,64.025 324.671,53.516 323.002 C 48.585 322.218,47.259 321.978,47.070 321.831 C 46.963 321.748,46.260 321.607,45.508 321.518 C 36.734 320.483,17.478 312.463,12.419 307.737 C 11.083 306.489,9.781 305.469,9.525 305.469 C 9.269 305.469,7.955 304.399,6.606 303.091 C 4.590 301.137,3.995 300.904,3.265 301.784 M126.998 303.806 C 125.496 307.138,124.131 316.406,125.143 316.406 C 125.494 316.406,125.785 317.021,125.789 317.773 C 125.799 319.769,129.928 326.589,132.734 329.248 C 134.066 330.510,135.156 332.025,135.156 332.614 C 135.156 333.204,135.547 333.444,136.025 333.149 C 136.503 332.854,137.118 332.939,137.392 333.338 C 138.036 334.275,145.769 338.978,148.160 339.887 C 149.172 340.271,150.000 340.962,150.000 341.421 C 150.000 341.880,150.439 342.199,150.977 342.129 C 153.034 341.862,154.614 342.225,155.608 343.192 C 156.176 343.745,157.453 344.252,158.446 344.319 C 161.067 344.496,165.625 346.108,165.625 346.858 C 165.625 347.211,166.855 347.386,168.359 347.247 C 169.863 347.107,171.094 347.307,171.094 347.690 C 171.094 348.074,171.621 348.186,172.266 347.939 C 172.916 347.689,173.438 347.917,173.438 348.452 C 173.438 349.099,174.186 349.264,175.726 348.956 C 177.168 348.668,178.158 348.849,178.401 349.445 C 178.682 350.132,179.014 350.070,179.616 349.219 C 180.231 348.349,180.448 348.312,180.457 349.076 C 180.465 349.748,181.011 349.933,182.031 349.609 C 182.928 349.325,183.594 349.469,183.594 349.947 C 183.594 351.111,185.721 350.994,186.204 349.805 C 186.486 349.109,186.786 349.076,187.245 349.688 C 188.052 350.763,192.188 351.587,192.188 350.673 C 192.188 349.696,197.190 349.846,198.197 350.854 C 198.815 351.471,199.537 351.447,200.807 350.768 C 201.935 350.164,203.963 350.014,206.482 350.348 C 209.308 350.723,210.602 350.583,211.120 349.848 C 211.685 349.044,211.922 349.035,212.234 349.805 C 212.452 350.342,213.099 350.781,213.672 350.781 C 214.245 350.781,214.892 350.342,215.110 349.805 C 215.423 349.034,215.656 349.041,216.220 349.842 C 216.793 350.654,217.141 350.607,217.969 349.609 C 218.792 348.617,219.136 348.570,219.658 349.377 C 220.189 350.199,220.444 350.187,221.006 349.314 C 221.388 348.722,222.061 348.460,222.502 348.733 C 222.943 349.005,223.483 348.787,223.702 348.247 C 224.003 347.505,224.302 347.551,224.929 348.438 C 225.573 349.349,225.760 349.374,225.769 348.549 C 225.776 347.930,226.268 347.676,226.953 347.939 C 227.598 348.186,228.130 347.960,228.137 347.436 C 228.145 346.834,228.427 346.915,228.906 347.656 C 229.457 348.508,229.667 348.549,229.676 347.805 C 229.682 347.243,230.039 347.000,230.469 347.266 C 230.898 347.531,231.250 347.348,231.250 346.859 C 231.250 346.277,232.061 346.148,233.594 346.484 C 235.170 346.831,235.938 346.696,235.938 346.072 C 235.938 345.562,236.465 345.348,237.109 345.595 C 237.754 345.842,238.281 345.683,238.281 345.242 C 238.281 344.800,238.609 344.641,239.009 344.889 C 239.409 345.136,239.947 344.996,240.205 344.578 C 240.464 344.160,241.146 343.999,241.721 344.220 C 242.297 344.440,243.339 344.050,244.037 343.351 C 244.735 342.653,246.150 341.992,247.181 341.882 C 248.211 341.772,249.644 341.093,250.364 340.372 C 251.085 339.652,252.017 339.063,252.437 339.063 C 252.857 339.063,255.137 337.824,257.504 336.309 C 259.871 334.795,262.099 333.737,262.456 333.957 C 262.812 334.177,263.296 333.623,263.530 332.725 C 263.765 331.827,264.332 331.325,264.791 331.608 C 265.250 331.892,265.625 331.618,265.625 331.001 C 265.625 330.383,266.316 329.396,267.160 328.806 C 270.376 326.560,273.933 319.197,274.128 314.382 C 274.229 311.893,274.487 309.573,274.702 309.226 C 274.916 308.878,274.720 308.594,274.265 308.594 C 273.810 308.594,273.525 308.323,273.633 307.992 C 273.898 307.174,270.985 300.781,270.347 300.781 C 270.067 300.781,268.626 302.047,267.145 303.594 C 263.782 307.108,257.291 311.510,251.172 314.426 C 248.594 315.654,245.893 316.942,245.171 317.287 C 241.535 319.025,227.427 322.442,221.094 323.119 C 219.590 323.280,215.898 323.672,212.891 323.991 C 203.475 324.990,187.895 324.602,178.125 323.127 C 172.871 322.333,157.522 318.646,156.011 317.815 C 155.068 317.296,153.849 316.797,153.303 316.706 C 149.268 316.031,136.039 307.759,131.690 303.191 C 128.786 300.141,128.642 300.160,126.998 303.806 M390.123 305.378 C 385.642 309.513,375.030 315.608,370.313 316.757 C 370.098 316.809,369.176 317.267,368.265 317.774 C 367.354 318.282,365.069 319.070,363.187 319.527 C 361.305 319.983,359.063 320.551,358.203 320.788 C 357.344 321.026,355.762 321.332,354.688 321.470 C 353.613 321.607,352.734 321.782,352.734 321.857 C 352.734 322.025,350.399 322.545,347.266 323.073 C 338.907 324.483,317.395 324.921,308.594 323.860 C 298.322 322.622,299.277 321.469,298.901 335.557 C 298.587 347.305,298.795 349.573,300.116 348.756 C 300.520 348.507,301.388 348.750,302.047 349.297 C 303.024 350.107,303.375 350.084,303.954 349.169 C 304.523 348.269,304.666 348.257,304.676 349.108 C 304.684 349.849,305.278 350.021,306.641 349.679 C 307.767 349.397,308.594 349.526,308.594 349.985 C 308.594 350.423,309.297 350.781,310.156 350.781 C 311.016 350.781,311.719 350.387,311.719 349.904 C 311.719 349.337,312.064 349.283,312.695 349.752 C 313.873 350.627,334.357 350.619,335.742 349.744 C 336.297 349.393,336.719 349.484,336.719 349.954 C 336.719 350.409,337.422 350.781,338.281 350.781 C 339.141 350.781,339.844 350.423,339.844 349.985 C 339.844 349.526,340.671 349.397,341.797 349.679 C 343.160 350.021,343.754 349.849,343.762 349.108 C 343.771 348.282,343.957 348.306,344.603 349.219 C 345.226 350.101,345.530 350.149,345.828 349.414 C 346.046 348.877,346.567 348.438,346.986 348.438 C 347.405 348.438,347.492 348.877,347.177 349.414 C 346.863 349.951,347.370 349.721,348.303 348.902 C 349.248 348.074,350.000 347.814,350.000 348.316 C 350.000 348.813,350.372 349.219,350.827 349.219 C 351.282 349.219,351.404 348.813,351.097 348.317 C 350.734 347.730,350.885 347.628,351.529 348.026 C 352.105 348.382,352.803 348.188,353.200 347.561 C 353.765 346.670,353.886 346.686,353.906 347.656 C 353.926 348.615,354.053 348.635,354.604 347.764 C 354.975 347.179,356.376 346.655,357.717 346.601 C 359.059 346.546,360.156 346.196,360.156 345.823 C 360.156 345.450,360.661 345.339,361.278 345.576 C 361.894 345.812,362.510 345.696,362.645 345.317 C 362.780 344.937,363.844 344.502,365.010 344.348 C 366.175 344.195,367.352 343.846,367.625 343.573 C 367.898 343.300,368.614 343.266,369.217 343.497 C 369.820 343.728,370.313 343.507,370.313 343.006 C 370.313 342.505,370.664 342.313,371.094 342.578 C 371.523 342.844,371.875 342.689,371.875 342.234 C 371.875 341.779,372.578 341.406,373.438 341.406 C 374.297 341.406,375.000 341.097,375.000 340.720 C 375.000 340.342,376.143 339.581,377.539 339.027 C 393.109 332.859,402.888 316.360,397.720 304.979 C 395.657 300.436,395.470 300.446,390.123 305.378 M127.098 353.542 C 126.374 355.061,125.781 356.818,125.781 357.448 C 125.781 358.078,125.518 358.593,125.195 358.593 C 121.805 358.590,127.235 373.816,132.448 378.932 C 134.330 380.779,135.655 382.638,135.392 383.063 C 135.130 383.488,135.278 383.611,135.721 383.337 C 136.164 383.063,138.877 384.382,141.749 386.269 C 144.621 388.155,147.843 389.917,148.908 390.185 C 150.093 390.482,150.631 391.017,150.294 391.562 C 149.933 392.147,150.182 392.285,151.021 391.963 C 151.724 391.693,152.810 391.984,153.435 392.609 C 154.060 393.234,155.089 393.547,155.721 393.304 C 156.354 393.062,157.336 393.361,157.905 393.970 C 158.473 394.578,159.564 394.913,160.328 394.713 C 161.102 394.510,161.719 394.773,161.719 395.305 C 161.719 395.834,162.242 396.060,162.891 395.811 C 163.535 395.564,164.063 395.740,164.063 396.202 C 164.063 396.664,164.590 396.840,165.234 396.592 C 165.879 396.345,166.406 396.524,166.406 396.991 C 166.406 397.457,167.109 397.655,167.969 397.430 C 168.828 397.205,169.531 397.378,169.531 397.814 C 169.531 398.256,170.344 398.403,171.368 398.146 C 172.379 397.892,173.442 397.921,173.730 398.210 C 174.909 399.388,219.241 400.370,220.703 399.249 C 221.133 398.920,222.290 398.721,223.275 398.807 C 224.260 398.892,225.249 398.667,225.472 398.307 C 225.695 397.946,226.734 397.866,227.782 398.129 C 228.864 398.400,229.688 398.264,229.688 397.814 C 229.688 397.378,230.391 397.205,231.250 397.430 C 232.109 397.655,232.813 397.457,232.813 396.991 C 232.813 396.524,233.375 396.359,234.063 396.623 C 234.751 396.887,235.578 396.675,235.902 396.152 C 236.225 395.629,237.745 395.101,239.281 394.980 C 240.816 394.858,242.663 394.168,243.384 393.446 C 244.206 392.624,245.285 392.322,246.274 392.635 C 247.324 392.968,247.673 392.847,247.317 392.271 C 246.869 391.546,247.979 390.989,248.652 391.602 C 248.770 391.709,249.885 390.995,251.131 390.016 C 252.834 388.676,253.545 388.477,253.999 389.213 C 254.452 389.945,254.730 389.861,255.107 388.878 C 255.622 387.537,262.416 383.106,263.477 383.420 C 263.799 383.516,264.063 383.138,264.063 382.580 C 264.063 382.023,265.440 380.222,267.124 378.577 C 272.070 373.748,277.268 358.590,273.977 358.593 C 273.630 358.593,273.527 358.300,273.748 357.942 C 274.246 357.137,271.174 350.781,270.287 350.781 C 269.934 350.781,268.828 351.781,267.830 353.002 C 262.795 359.165,244.231 369.064,236.523 369.696 C 235.342 369.793,234.375 370.116,234.375 370.414 C 234.375 371.058,230.219 371.850,220.703 373.020 C 218.555 373.285,216.172 373.689,215.409 373.919 C 212.028 374.938,185.656 374.275,178.759 372.998 C 177.336 372.734,175.293 372.392,174.219 372.236 C 173.145 372.081,171.387 371.767,170.313 371.538 C 169.238 371.309,166.643 370.765,164.545 370.331 C 160.297 369.450,151.387 366.383,150.781 365.594 C 150.566 365.313,149.455 364.856,148.311 364.576 C 145.130 363.798,134.837 356.613,132.483 353.527 C 129.847 350.070,128.752 350.073,127.098 353.542 " stroke="none" fill="#000000" fill-rule="evenodd"></path></g></svg>